<svg width="35" height="46" viewBox="0 0 35 46" fill="none" xmlns="http://www.w3.org/2000/svg">
<path d="M32.5192 0.481689H9.83482C9.67347 0.48375 9.51902 0.547898 9.40312 0.660986L0.85286 9.27427C0.740277 9.3909 0.676226 9.54648 0.673828 9.70915V43.1076C0.67429 43.7369 0.922592 44.3403 1.36424 44.7854C1.80588 45.2305 2.40479 45.4809 3.02951 45.4817H32.5192C33.1437 45.4809 33.7425 45.2307 34.1841 44.7858C34.6257 44.3409 34.8741 43.7378 34.8749 43.1086V2.85368C34.8738 2.22472 34.6253 1.62183 34.1837 1.17719C33.7421 0.732544 33.1435 0.482433 32.5192 0.481689ZM9.22408 2.58122V9.09497H2.75904L5.99139 5.8388L9.22408 2.58122ZM33.6534 43.1076C33.653 43.4105 33.5334 43.7009 33.3208 43.9151C33.1082 44.1293 32.8199 44.2498 32.5192 44.2502H3.02951C2.72881 44.2498 2.44053 44.1293 2.22791 43.9151C2.01528 43.7009 1.89566 43.4105 1.89529 43.1076V10.3254H9.83482C9.91511 10.3254 9.99461 10.3095 10.0688 10.2785C10.1429 10.2475 10.2103 10.2021 10.267 10.1449C10.3238 10.0876 10.3687 10.0197 10.3994 9.94491C10.43 9.87015 10.4457 9.79003 10.4456 9.70915V1.71216H32.5192C32.8199 1.71253 33.1082 1.83303 33.3208 2.04722C33.5334 2.26142 33.653 2.55182 33.6534 2.85474V43.1076Z" fill="black"/>
<path d="M6.19211 13.8062C6.7124 14.1668 7.30476 14.4082 7.92757 14.5136C8.55038 14.6189 9.18853 14.5855 9.79718 14.4158L8.02745 17.9026H7.47779C7.39758 17.9026 7.31814 17.9185 7.24402 17.9494C7.1699 17.9803 7.10256 18.0256 7.04584 18.0827C6.98912 18.1399 6.94413 18.2077 6.91345 18.2824C6.88278 18.357 6.86701 18.437 6.86706 18.5179V19.775C6.86771 20.3389 7.09036 20.8796 7.48619 21.2783C7.88201 21.677 8.41867 21.9013 8.97845 21.902H12.9664C13.5261 21.9013 14.0627 21.677 14.4585 21.2783C14.8543 20.8795 15.0768 20.3389 15.0774 19.775V18.5172C15.0774 18.4363 15.0617 18.3563 15.031 18.2817C15.0003 18.207 14.9553 18.1392 14.8986 18.082C14.8419 18.0249 14.7746 17.9796 14.7004 17.9487C14.6263 17.9178 14.5469 17.9019 14.4667 17.9019H13.9174L11.8014 13.7334L12.2366 13.583C13.2267 13.2379 14.2995 13.2151 15.3032 13.5176L16.0389 13.7377V23.4872H11.1094C10.6988 23.4876 10.3052 23.652 10.0149 23.9445C9.72454 24.2369 9.56128 24.6335 9.56091 25.0471V25.8799H8.77778C8.41695 25.8804 8.07102 26.025 7.81587 26.282C7.56073 26.5391 7.41718 26.8875 7.41672 27.251V28.7627C7.41681 28.9259 7.48119 29.0823 7.5957 29.1977C7.71021 29.313 7.8655 29.3779 8.02745 29.378H27.5231C27.685 29.3779 27.8403 29.313 27.9548 29.1977C28.0693 29.0823 28.1337 28.9259 28.1338 28.7627V27.251C28.1334 26.8875 27.9898 26.5391 27.7347 26.282C27.4795 26.025 27.1336 25.8804 26.7728 25.8799H25.9886V25.0471C25.9882 24.6336 25.825 24.2372 25.5349 23.9447C25.2447 23.6523 24.8512 23.4877 24.4408 23.4872H19.5113V13.7377L20.247 13.5176C21.2507 13.2147 22.3235 13.2376 23.3136 13.583L23.7488 13.7334L21.6328 17.9023H21.0832C20.9212 17.9023 20.7659 17.9671 20.6513 18.0825C20.5368 18.1978 20.4724 18.3543 20.4724 18.5175V19.7747C20.4731 20.3386 20.6957 20.8792 21.0916 21.278C21.4874 21.6767 22.024 21.901 22.5838 21.9016H26.5717C27.1315 21.901 27.6682 21.6767 28.064 21.278C28.4598 20.8792 28.6825 20.3386 28.6831 19.7747V18.5172C28.6832 18.4363 28.6674 18.3563 28.6367 18.2817C28.6061 18.207 28.5611 18.1392 28.5043 18.082C28.4476 18.0249 28.3803 17.9796 28.3062 17.9487C28.232 17.9178 28.1526 17.9019 28.0724 17.9019H27.5227L25.753 14.4155C26.3616 14.5852 26.9998 14.6186 27.6226 14.5134C28.2454 14.4081 28.8378 14.1667 29.3581 13.8062C29.4241 13.7603 29.4805 13.7017 29.5241 13.6338C29.5677 13.5659 29.5975 13.49 29.612 13.4105C29.6264 13.331 29.6252 13.2493 29.6083 13.1703C29.5915 13.0913 29.5593 13.0163 29.5137 12.9498C29.4681 12.8833 29.41 12.8265 29.3426 12.7826C29.2752 12.7387 29.1998 12.7086 29.1209 12.694C29.0419 12.6795 28.9609 12.6807 28.8825 12.6977C28.804 12.7147 28.7296 12.7471 28.6636 12.793C28.2624 13.0698 27.8025 13.2483 27.3207 13.3144C26.8389 13.3804 26.3484 13.3321 25.8884 13.1734L23.7111 12.4189C22.4802 11.9899 21.1465 11.9615 19.8987 12.3377L19.5113 12.4538V11.732C19.8651 11.3842 20.108 10.9381 20.2089 10.4506C20.3099 9.96314 20.2642 9.45641 20.0779 8.99517C19.8915 8.53394 19.5729 8.13913 19.1627 7.8612C18.7525 7.58326 18.2694 7.43481 17.7751 7.43481C17.2808 7.43481 16.7976 7.58326 16.3875 7.8612C15.9773 8.13913 15.6587 8.53394 15.4723 8.99517C15.286 9.45641 15.2403 9.96314 15.3412 10.4506C15.4422 10.9381 15.685 11.3842 16.0389 11.732V12.4534L15.6515 12.3374C14.4037 11.9612 13.07 11.9896 11.8391 12.4186L9.66177 13.1734C9.2017 13.3318 8.71129 13.3799 8.22952 13.3139C7.74775 13.2479 7.28792 13.0695 6.8866 12.793C6.75323 12.7002 6.58873 12.6646 6.4293 12.694C6.26986 12.7234 6.12856 12.8154 6.03646 12.9498C5.94437 13.0842 5.90903 13.2499 5.93822 13.4105C5.96741 13.5711 6.05874 13.7134 6.19211 13.8062ZM27.4617 19.7747C27.4614 20.0124 27.3675 20.2402 27.2007 20.4083C27.0339 20.5764 26.8077 20.6709 26.5717 20.6712H22.5838C22.3479 20.6709 22.1217 20.5764 21.9549 20.4083C21.788 20.2402 21.6942 20.0124 21.6939 19.7747V19.1327H27.4617V19.7747ZM23.0051 17.9023L24.5776 14.8039L26.1509 17.9023H23.0051ZM26.9137 27.251V28.1475H8.63784V27.251C8.63784 27.2137 8.65254 27.178 8.67872 27.1516C8.7049 27.1252 8.74041 27.1104 8.77743 27.1104H26.7724C26.7908 27.1103 26.809 27.114 26.8259 27.121C26.8429 27.128 26.8583 27.1384 26.8713 27.1515C26.8843 27.1645 26.8947 27.18 26.9017 27.1971C26.9087 27.2142 26.9124 27.2325 26.9124 27.251H26.9137ZM24.7685 25.0471V25.8799H10.7831V25.0471C10.7832 24.9597 10.8177 24.876 10.879 24.8142C10.9403 24.7525 11.0234 24.7178 11.1101 24.7177H24.4408C24.5274 24.7179 24.6103 24.7528 24.6715 24.8145C24.7326 24.8762 24.767 24.9599 24.7671 25.0471H24.7685ZM17.7751 8.66883C18.0253 8.66876 18.27 8.74346 18.4781 8.88346C18.6862 9.02347 18.8484 9.2225 18.9442 9.45539C19.04 9.68827 19.065 9.94454 19.0162 10.1918C18.9674 10.439 18.8469 10.6661 18.67 10.8444C18.493 11.0226 18.2676 11.144 18.0222 11.1932C17.7767 11.2424 17.5223 11.2171 17.2912 11.1206C17.06 11.0241 16.8624 10.8607 16.7234 10.6511C16.5844 10.4414 16.5103 10.195 16.5104 9.94289C16.5107 9.60511 16.6441 9.28126 16.8812 9.04241C17.1183 8.80355 17.4398 8.6692 17.7751 8.66883ZM17.7751 12.4478C17.9481 12.4476 18.1206 12.4293 18.2899 12.3929V23.4872H17.2603V12.3929C17.4295 12.4293 17.6021 12.4476 17.7751 12.4478ZM13.8559 19.7747C13.8557 20.0123 13.762 20.2402 13.5952 20.4083C13.4284 20.5763 13.2023 20.6709 12.9664 20.6712H8.97845C8.74251 20.6709 8.51632 20.5764 8.34948 20.4083C8.18265 20.2402 8.0888 20.0124 8.08852 19.7747V19.1327H13.8559V19.7747ZM9.39933 17.9023L10.9722 14.8039L12.5448 17.9023H9.39933Z" fill="black"/>
<path d="M31.4723 31.5168H4.07655C3.91458 31.5168 3.75923 31.5817 3.6447 31.697C3.53017 31.8124 3.46582 31.9689 3.46582 32.1321C3.46582 32.2953 3.53017 32.4517 3.6447 32.5671C3.75923 32.6825 3.91458 32.7473 4.07655 32.7473H31.4723C31.6343 32.7473 31.7896 32.6825 31.9041 32.5671C32.0187 32.4517 32.083 32.2953 32.083 32.1321C32.083 31.9689 32.0187 31.8124 31.9041 31.697C31.7896 31.5817 31.6343 31.5168 31.4723 31.5168Z" fill="black"/>
<path d="M31.4723 34.6926H4.07655C3.91458 34.6926 3.75923 34.7574 3.6447 34.8728C3.53017 34.9882 3.46582 35.1447 3.46582 35.3079C3.46582 35.471 3.53017 35.6275 3.6447 35.7429C3.75923 35.8583 3.91458 35.9231 4.07655 35.9231H31.4723C31.6343 35.9231 31.7896 35.8583 31.9041 35.7429C32.0187 35.6275 32.083 35.471 32.083 35.3079C32.083 35.1447 32.0187 34.9882 31.9041 34.8728C31.7896 34.7574 31.6343 34.6926 31.4723 34.6926Z" fill="black"/>
<path d="M31.4723 37.8723H4.07655C3.91458 37.8723 3.75923 37.9371 3.6447 38.0525C3.53017 38.1679 3.46582 38.3244 3.46582 38.4875C3.46582 38.6507 3.53017 38.8072 3.6447 38.9226C3.75923 39.038 3.91458 39.1028 4.07655 39.1028H31.4723C31.6343 39.1028 31.7896 39.038 31.9041 38.9226C32.0187 38.8072 32.083 38.6507 32.083 38.4875C32.083 38.3244 32.0187 38.1679 31.9041 38.0525C31.7896 37.9371 31.6343 37.8723 31.4723 37.8723Z" fill="black"/>
<path d="M28.0717 41.0481H4.07655C3.91458 41.0481 3.75923 41.1129 3.6447 41.2283C3.53017 41.3437 3.46582 41.5002 3.46582 41.6633C3.46582 41.8265 3.53017 41.983 3.6447 42.0984C3.75923 42.2137 3.91458 42.2786 4.07655 42.2786H28.0717C28.2337 42.2786 28.389 42.2137 28.5036 42.0984C28.6181 41.983 28.6824 41.8265 28.6824 41.6633C28.6824 41.5002 28.6181 41.3437 28.5036 41.2283C28.389 41.1129 28.2337 41.0481 28.0717 41.0481Z" fill="black"/>
</svg>
