<svg id="Layer_1" enable-background="new 0 0 66 66" viewBox="0 0 66 66" xmlns="http://www.w3.org/2000/svg"><g><path d="m57.7 47h-5c-.1-1.7-.7-3.3-1.8-4.6l8.3-17.3.6.3c.1.1.3.1.4.1s.2 0 .3-.1c.3-.1.5-.3.6-.5l1.6-3.3 1.7-3.6c1.1-2.4.1-5.2-2.2-6.3l-1.5-.7c-2.4-1.1-5.2-.1-6.3 2.2l-3.3 6.9c-.2.5 0 1.1.5 1.3l.6.3-8.6 17.8c-2.6.4-4.9 2-6.1 4.5-.5 1-.7 2-.8 3h-3.5c-4 0-7.3 3.3-7.3 7.3v8.9c0 .6.4 1 1 1h37.1c.6 0 1-.4 1-1v-8.9c0-4-3.3-7.3-7.3-7.3zm-22.5 15.1v-4h20.5v4zm21.5-6h-22.5-1.3c.2-.5.4-1 .9-1.4.6-.6 1.5-1 2.4-1h3.5c1.5 1.2 3.3 1.8 5.1 1.8s3.6-.6 5.1-1.8h4.7c1.5 0 2.8 1 3.2 2.4zm3.2-33-.6-.3-5.3-2.5-.6-.3.7-1.5 6.5 3.1zm-3.6-9.1c.3-.7.9-1.2 1.6-1.4s1.4-.2 2.1.1l1.5.7c1.4.7 1.9 2.3 1.3 3.7l-1.3 2.7-6.5-3.1zm1.2 10.2-8 16.7c-.4-.3-.8-.5-1.2-.8-.8-.4-1.6-.6-2.4-.7l8.2-17zm-18.2 20.7c1.4-3 5-4.3 8.1-2.8 3 1.4 4.3 5.1 2.8 8.1-2.3 4.8-9.4 4.5-11.2-.6-.5-1.6-.4-3.3.3-4.7zm-11.4 9.4c0-2.9 2.4-5.3 5.3-5.3h3.6c.2.9.5 1.8 1.1 2.7h-1.8c-1.5 0-2.8.6-3.8 1.6s-1.6 2.4-1.6 3.8c0 .6.4 1 1 1h1.5v4h-5.3zm35.1 7.8h-5.3v-4h1.2c.6 0 1-.4 1-1 0-3-2.4-5.4-5.4-5.4h-2.9c.5-.8.9-1.7 1.1-2.7h5.1c2.9 0 5.3 2.4 5.3 5.3v7.8z"/><path d="m43.2 50.6c.5.2 1 .3 1.5.3 1.3 0 2.5-.7 3.1-2 .8-1.7.1-3.8-1.6-4.6s-3.8-.1-4.6 1.6c-.8 1.8-.1 3.9 1.6 4.7zm.2-3.7c.8-1.7 3.4-.5 2.6 1.3-.3.7-1.2 1-1.9.7-.7-.5-1-1.3-.7-2z"/><path d="m26.4 43.8.8-5.5c.8-.3 1.6-.6 2.4-1l4.5 3.3c.4.3 1 .3 1.3-.1l4.3-4.3c.4-.4.4-.9.1-1.3l-3.3-4.5c.4-.8.7-1.6 1-2.4l5.5-.8c.5-.1.9-.5.9-1v-6c0-.5-.4-.9-.9-1l-5.5-.8c-.3-.8-.6-1.6-1-2.4l3.3-4.5c.3-.4.3-1-.1-1.3l-4.3-4.2c-.4-.4-.9-.4-1.3-.1l-4.5 3.3c-.8-.4-1.6-.7-2.4-1l-.8-5.5c-.1-.5-.5-.9-1-.9h-6c-.5 0-.9.4-1 .9l-.8 5.5c-.8.3-1.6.6-2.4 1l-4.5-3.3c-.4-.3-1-.3-1.3.1l-4.3 4.3c-.4.4-.4.9-.1 1.3l3.3 4.4c-.4.8-.7 1.6-1 2.4l-5.5.8c-.5.1-.9.5-.9 1v6c0 .5.4.9.9 1l5.5.8c.3.8.6 1.6 1 2.4l-3.3 4.5c-.3.4-.3 1 .1 1.3l4.3 4.3c.4.3.9.4 1.3.1l4.5-3.3c.8.4 1.6.7 2.4 1l.8 5.5c.1.5.5.9 1 .9h6c.5-.1.9-.4 1-.9zm-1.1-6.5-.8 5.3h-4.3l-.8-5.3c-.1-.4-.3-.7-.7-.8-1.1-.3-2.2-.7-3.1-1.3-.3-.2-.8-.2-1.1.1l-4.3 3.2-3-3 3.2-4.3c.2-.3.3-.7.1-1.1-.6-1-1-2-1.3-3.1-.1-.4-.4-.7-.8-.7l-5.4-.9v-4.3l5.3-.8c.4-.1.7-.3.8-.7.3-1.1.7-2.2 1.3-3.1.2-.3.2-.8-.1-1.1l-3.2-4.3 3-3 4.3 3.2c.3.2.7.3 1.1.1 1-.6 2-1 3.1-1.3.4-.1.7-.4.7-.8l.8-5.3h4.3l.8 5.3c.1.4.3.7.7.8 1.1.3 2.2.7 3.1 1.3.3.2.8.2 1.1-.1l4.5-3.3 3 3-3.2 4.3c-.2.3-.3.7-.1 1.1.6 1 1 2 1.3 3.1.1.4.4.7.8.7l5.3.8v4.3l-5.3.8c-.4.1-.7.3-.8.7-.3 1.1-.7 2.2-1.3 3.1-.2.3-.2.8.1 1.1l3.2 4.3-3 3-4.3-3.2c-.3-.2-.7-.3-1.1-.1-1 .6-2 1-3.1 1.3-.4.3-.7.6-.8 1z"/><path d="m22.4 14.4c-4.9 0-8.9 4-8.9 8.9s4 8.9 8.9 8.9 8.9-4 8.9-8.9-4-8.9-8.9-8.9zm0 15.7c-3.8 0-6.9-3.1-6.9-6.9s3.1-6.9 6.9-6.9 6.9 3.1 6.9 6.9-3.1 6.9-6.9 6.9z"/></g></svg>