<svg id="Layer_1" enable-background="new 0 0 75 75" viewBox="0 0 75 75" xmlns="http://www.w3.org/2000/svg"><g id="Source_Code"><path d="m22.9397469 18.5189991c-.0055275.1750031-.0084572.970274-.0087891 1.0708008-.0292969 2.6010742.1494141 2.8837891 2.3984375 3.7802734l.3300781.1323242c1.1112881.4474392 1.4023399 1.125761.9462891 2.2246094-.2154922.5278473-.3657722.9019718-.5253906 1.2617188-.4277344.9643555-.2373047 1.8999023.5371094 2.6357422.1408081.1334457.265873.2605247.6806641.684082 1.7539063 1.7875957 2.0751953 1.8554668 4.3046875.9038086l.2675781-.1142578c2.3464432-.9972401 2.1957474 1.4344807 3.0253906 2.4750957.34375.4311523.8632813.809082 1.4648438 1.0654297.504425.215477 1.031517.1035156 1.3779297.1035156 2.6650391-.0380859 2.9248047-.168457 3.9384766-2.6254883 1.0111771-2.4467716 2.5810013-.5669403 4.4287109-.3217754.1982422.0234375.7919922.1054688 1.9570313-.918457.7412109-.6518555 1.9951172-2.0458984 1.9921875-3.1357422v-.1464844c-.6501923-1.5357361-.9829559-1.9722996-.7910385-3.1567383.0898666-.5517578.4609604-.7495117 1.3496323-1.1000977l.2197266-.0869141c1.8867188-.7602539 2.1259766-1.1142578 2.1376953-3.15625l.0019531-.3344727c.0185547-2.4804688-.1669922-2.7558594-2.4794922-3.6787109-.1370697-.0754433-.9576187-.2593088-1.2626953-.9833984-.36063-.8573008.2727814-1.7063885.4892578-2.3613281.5625-1.3540039.4375-2.0048828-.5830078-3.027832l-.5175781-.5161133c-1.7773438-1.7788086-2.1113281-1.8422852-4.4589844-.8588867-1.989994.8356771-2.237011-.4216795-3.0195313-2.2416992-.3574219-.8325195-1.0585938-1.3066406-1.9765625-1.3354492-.3195992-.0095763-.6838875-.0064983-1.046875-.0053711-2.5927734 0-2.8828125.1933594-3.8789063 2.5883789-1.3973732 3.3524084-3.7134857-1.2182031-6.0136719.9194336-.1170502.1078291-.7081604.6956854-.8085938.7958984-1.8369141 1.793457-1.9091797 2.1171875-.9667969 4.3261719.0527229.1690073.5551548 1.0351563.2744141 1.7148438-.2787839.6775693-3.7022248.8827085-3.7841797 3.4233398zm4.8896484-5.7270508c-.6553249-1.5344563-.6501427-1.4096375 1.0458984-3.0708008.7389774-.7479897.6918926-.6852245 1.8408203-.190918.2128258.0220757 3.3960953 2.0280714 4.9072266-1.6152344.7224159-1.7362461.689064-1.6640611 2.7646484-1.6650391.2421875-.0009766.4853516-.0029297.7294922.0053711.3369141.0107422.5175781.1303711.6445313.4282227.5485458 1.2716351.9354515 2.6559696 2.28125 3.2109375.7617188.3144531 1.6679688.2543945 2.6972656-.1772461 1.7419357-.7311058 1.565567-.7136393 3.3339844 1.0507813.7147675.7165699.6030731.5286283-.1621094 2.4013672-.7466316 1.7965221-.0066986 3.4910526 1.7285156 4.1865234 1.9299316.7703381 1.8557091.6298561 1.8300781 2.7299805-.007164 1.354763-.0008507 1.2905617-1.4072266 1.855957-.8632813.340332-2.0449219.8061523-2.2802734 2.2553711-.2508965 1.5399876.1515427 2.2563362.7548828 3.6586914-.1757813.6787109-1.7099609 2.3461914-2.2353516 2.4516602-.3732567-.04916-.6777077-.1705303-1.6660156-.590332-1.9863281-.8061523-3.5292969-.1567383-4.3466797 1.828125-.6787109 1.6435528-.7001953 1.6967754-2.3759766 1.6967754-.1699219-.0009766-.359375.003418-.5458984.0166016-.1416016.0092773-.3545151.0249023-.4199219 0-.3701172-.1582031-.6914063-.3837891-.8798828-.6206055-.3858986-.48769-.741478-3.2768536-3.2167969-3.2768536-.9080353 0-1.6803417.4164352-1.8388672.4716797-1.8092976.7748947-1.445715.5282803-3.3632813-1.296875-.3154297-.2993164-.3691406-.5541992-.1982422-.9384766.1347656-.3041992.2607422-.612793.3867188-.9213867.0591373-.2201939.8339233-1.5397949.2675781-2.8833008-.3095703-.7373047-.9443359-1.3032227-1.8867188-1.6821289-1.9259338-.7685013-1.8198471-.5786972-1.7851563-3.0361328 0-1.1149197-.0935192-.9395008 1.7763672-1.7006836 3.4164889-1.3917732 1.6266959-4.4820241 1.6191409-4.5820312z"/><path d="m33.4387703 23.2304249c.3236618.2543049.7978249.1985912 1.0527344-.1289063.2548828-.3261719.1972656-.7973633-.1289063-1.0527344l-3.1679688-2.4775391 3.0019531-2.7114258c.3076172-.277832.3310547-.7519531.0537109-1.0595703-.2783203-.3071289-.7529297-.3295898-1.0595703-.0537109l-3.6640625 3.3095703c-.3502178.316864-.3210163.8653202.0410156 1.1474609z"/><path d="m42.0012703 23.3896046c.4636726 0 .3264694-.126297 4.3320313-3.1860352.3622932-.2823467.3909454-.8308563.0410156-1.1474609l-3.6640625-3.3095703c-.3066406-.2773438-.7802734-.2539063-1.0595703.0537109-.2773438.3076172-.2539063.7817383.0537109 1.0595703l3.0019531 2.7114258-3.1679688 2.4775391c-.5616912.4397678-.247467 1.3408203.4628907 1.3408203z"/><path d="m35.9905281 26.1752491c.3144531 0 .6064453-.1987305.7119141-.5126953l3.7763672-11.3295898c.1308594-.3930664-.0820313-.8178711-.4746094-.9487305-.3994141-.1323242-.8173828.0820313-.9492188.4741211l-3.7763672 11.3295898c-.1618347.4861031.2014657.9873047.7119141.9873047z"/><path d="m22.0657234 31.8900928-5.1855469 1.5341778c-.8458099.1379547-.8506222 1.319519-.0117188 1.4765625l21.1445313 5.859375c.1399803.0386543.2834015.0354042.4150391-.0039063l20.4052734-6.0996094c.6600113-.1980019.7649498-1.3549614-.0429688-1.546875l-7.7763901-1.8476543c-.404274-.0966797-.8075943.152832-.9032974.5561523-.0957031.4028301.1532974.807127.5556641.9028301l5.2392578 1.2451172-17.7001953 5.2910156-18.4658203-5.1147461 2.7519531-.8139648c.39744-.1176758.6240234-.534668.5058594-.9321289-.1162109-.3964824-.5292968-.6225566-.9316406-.5063457z"/><path d="m12.6350584 47.5751495 17.3554688 6.171875c1.0314369.3665466 2.1612511-.1040726 2.6337891-1.0864258l4.5126953-9.4243164c.1787109-.3735352.0205078-.8212891-.3525391-1-.3759766-.1801758-.8222656-.0205078-1.0009766.3525391l-4.5117188 9.4233398c-.140625.2900391-.4697266.4287109-.7792969.3217773l-17.3544922-6.171875c-.3536396-.1252861-.5179348-.5275307-.3583984-.8637695l3.8115244-7.9912109c.1787109-.3735352.0195313-.8212891-.3535156-.9995117-.3769541-.1806641-.82129-.0195313-1.000001.3540039l-3.8115234 7.9916992c-.5429001 1.1390686.0198355 2.4982033 1.2089844 2.921875z"/><path d="m61.8381844 47.0189972-17.1484375 5.3198242c-.3193359.0957031-.6494141-.0664063-.7705078-.3676758l-3.6318359-9.0981445c-.1533203-.3852539-.5878906-.5703125-.9746094-.4189453-.3847656.1538086-.5722656.590332-.4179688.9746094l3.6318359 9.0981445c.409317 1.0281754 1.5585365 1.5702324 2.6074219 1.2446289l17.1484375-5.3198242c1.1201172-.347168 1.7499962-1.5410156 1.4042969-2.6616211l-2.7871094-9.0234375c-.1220703-.3959961-.5400391-.6152344-.9384766-.4956055-.3955078.1225586-.6171875.5424805-.4951172.9379883l2.7871094 9.0234375c.1025391.3310547-.0830078.684082-.415039.7866211z"/><path d="m58.1819344 65.0331573-.3212891-10.4804688c-.0126953-.40625-.3457031-.7270508-.75-.7270508-.0068359 0-.015625 0-.0234375.0004883-.4130859.0126953-.7392578.3583984-.7265625.7724609l.3212891 10.4575195c0 .1391602-.0625.2680664-.1669922.3544922l-17.5517578 3.043335v-19.413452c0-.4140625-.3359375-.75-.75-.75s-.75.3359375-.75.75v19.5253906c0 .3215714-.3929062.0985718-.4941406.0795898l-17.1259766-3.2270508c-.1015625-.0869141-.1621094-.2177734-.1621094-.3701172l-.3203125-11.8671875c-.0117188-.4140625-.3681641-.7485352-.7705078-.7294922-.4140625.0107422-.7402344.3554688-.7294922.7695313l.3203125 11.847168c0 .9343719.7158337 1.698616 1.2373047 1.7963867l17.171875 3.2353516c.2216797.1005859.4560547.1503906.6904297.1503906.1044922 0 .2075195-.0220337.3105469-.041748.1399307-.0131149-1.0579567.1847916 19.3271484-3.3459473.4913635-.0829163 1.2636719-.7986298 1.2636719-1.8295899z"/><path d="m58.1819344 15.82271v-5.1391602c0-.4140625-.3359375-.75-.75-.75s-.75.3359375-.75.75v5.1391602c0 .4140625.3359375.75.75.75s.75-.3359375.75-.75z"/><path d="m15.3030272 25.8280811v-5.5131836c0-.4140625-.3359375-.75-.75-.75-.4140825 0-.75.3359375-.75.75v5.5131836c0 .4140625.3359175.75.75.75.4140625 0 .75-.3359375.75-.75z"/></g></svg>