<svg width="45" height="46" viewBox="0 0 45 46" fill="none" xmlns="http://www.w3.org/2000/svg">
<g clip-path="url(#clip0_56_288)">
<path d="M44.3907 0.48169H1.0482C0.8868 0.481689 0.731998 0.546364 0.617775 0.661514C0.503551 0.776665 0.439242 0.932882 0.438966 1.09587V44.8654C0.438828 44.9463 0.454485 45.0264 0.485041 45.1012C0.515596 45.1759 0.56045 45.2439 0.617036 45.3011C0.673622 45.3584 0.74083 45.4038 0.814813 45.4348C0.888797 45.4657 0.968104 45.4817 1.0482 45.4817H44.3907C44.4707 45.4817 44.55 45.4659 44.6239 45.435C44.6978 45.404 44.765 45.3587 44.8216 45.3016C44.8782 45.2445 44.9231 45.1766 44.9537 45.102C44.9843 45.0273 45 44.9473 44.9999 44.8665V1.09587C44.9998 0.932853 44.9355 0.776583 44.8212 0.661412C44.707 0.546241 44.5521 0.481596 44.3907 0.48169ZM43.7815 44.2512H1.65743V1.71216H43.7815V44.2512Z" fill="black"/>
<path d="M3.83335 42.6692H41.6057C41.6858 42.6692 41.765 42.6534 41.8389 42.6225C41.9129 42.5915 41.9801 42.5462 42.0366 42.4891C42.0932 42.432 42.1381 42.3641 42.1687 42.2895C42.1993 42.2148 42.215 42.1348 42.215 42.054V3.90837C42.2148 3.74535 42.1505 3.58908 42.0363 3.47391C41.922 3.35874 41.7672 3.2941 41.6057 3.29419H3.83335C3.67196 3.29419 3.51715 3.35886 3.40293 3.47401C3.28871 3.58917 3.2244 3.74538 3.22412 3.90837V42.0529C3.22398 42.1338 3.23964 42.2139 3.2702 42.2887C3.30075 42.3634 3.34561 42.4314 3.40219 42.4886C3.45878 42.5459 3.52599 42.5913 3.59997 42.6223C3.67395 42.6532 3.75326 42.6692 3.83335 42.6692ZM4.44259 4.52466H40.9965V41.4387H4.44259V4.52466Z" fill="black"/>
<path d="M18.1988 7.24027C18.0875 7.19393 17.9651 7.18186 17.8469 7.20556C17.7288 7.22927 17.6203 7.2877 17.5349 7.37351L13.8151 11.13L9.38272 6.65421C9.3262 6.59705 9.25908 6.55169 9.18518 6.52075C9.11129 6.4898 9.03208 6.47388 8.95208 6.47388C8.87209 6.47388 8.79288 6.4898 8.71898 6.52075C8.64509 6.55169 8.57796 6.59705 8.52144 6.65421L6.55171 8.64265C6.43761 8.75812 6.37354 8.91458 6.37354 9.07771C6.37354 9.24083 6.43761 9.3973 6.55171 9.51277L10.9841 13.9889L7.26503 17.7446C7.17977 17.8306 7.12169 17.9403 7.09814 18.0596C7.07459 18.179 7.08663 18.3027 7.13273 18.4152C7.17883 18.5276 7.25692 18.6237 7.35713 18.6914C7.45733 18.759 7.57515 18.7951 7.69567 18.7951H17.9656C18.1272 18.7951 18.2821 18.7303 18.3964 18.6149C18.5106 18.4995 18.5748 18.343 18.5748 18.1798V7.80874C18.5748 7.68706 18.5391 7.5681 18.4722 7.46692C18.4053 7.36573 18.3101 7.28685 18.1988 7.24027ZM17.3577 17.5646H9.16653L12.2768 14.4237C12.3334 14.3667 12.3783 14.2989 12.4089 14.2243C12.4396 14.1496 12.4553 14.0696 12.4553 13.9889C12.4553 13.9081 12.4396 13.8281 12.4089 13.7535C12.3783 13.6788 12.3334 13.6111 12.2768 13.554L7.84433 9.07753L8.95208 7.95921L13.3845 12.4343C13.4988 12.5496 13.6538 12.6143 13.8153 12.6143C13.9769 12.6143 14.1318 12.5496 14.2461 12.4343L17.3577 9.29374V17.5646Z" fill="black"/>
<path d="M36.9171 6.65421C36.8606 6.59705 36.7934 6.55169 36.7195 6.52075C36.6456 6.4898 36.5664 6.47388 36.4864 6.47388C36.4064 6.47388 36.3272 6.4898 36.2533 6.52075C36.1794 6.55169 36.1123 6.59705 36.0558 6.65421L31.623 11.13L27.9039 7.37351C27.8188 7.2869 27.7101 7.22782 27.5916 7.20377C27.4731 7.17972 27.3503 7.19179 27.2386 7.23844C27.1269 7.2851 27.0315 7.36423 26.9645 7.46578C26.8975 7.56733 26.862 7.68671 26.8623 7.80874V18.1798C26.8623 18.2606 26.878 18.3407 26.9086 18.4153C26.9392 18.49 26.9841 18.5578 27.0406 18.615C27.0972 18.6721 27.1644 18.7174 27.2383 18.7483C27.3123 18.7792 27.3915 18.7951 27.4715 18.7951H37.7415C37.862 18.7951 37.9799 18.7591 38.0801 18.6915C38.1804 18.6239 38.2585 18.5278 38.3047 18.4153C38.3508 18.3029 38.3629 18.1791 38.3393 18.0597C38.3158 17.9403 38.2577 17.8306 38.1724 17.7446L34.454 13.9889L38.8865 9.51277C38.9431 9.45566 38.988 9.38784 39.0186 9.31319C39.0493 9.23854 39.0651 9.15852 39.0651 9.07771C39.0651 8.9969 39.0493 8.91688 39.0186 8.84223C38.988 8.76758 38.9431 8.69976 38.8865 8.64265L36.9171 6.65421ZM33.1635 13.554C33.1069 13.6111 33.062 13.6788 33.0313 13.7535C33.0007 13.8281 32.9849 13.9081 32.9849 13.9889C32.9849 14.0696 33.0007 14.1496 33.0313 14.2243C33.062 14.2989 33.1069 14.3667 33.1635 14.4237L36.2737 17.5646H28.0808V9.2941L31.1924 12.4343C31.2489 12.4914 31.316 12.5368 31.3899 12.5677C31.4638 12.5987 31.543 12.6146 31.623 12.6146C31.703 12.6146 31.7822 12.5987 31.8561 12.5677C31.93 12.5368 31.9971 12.4914 32.0537 12.4343L36.4864 7.95851L37.5942 9.07683L33.1635 13.554Z" fill="black"/>
<path d="M17.9662 27.1653H7.69627C7.57575 27.1653 7.45794 27.2014 7.35773 27.269C7.25752 27.3366 7.17943 27.4327 7.13333 27.5452C7.08723 27.6576 7.07519 27.7814 7.09874 27.9007C7.12229 28.0201 7.18037 28.1297 7.26563 28.2158L10.9847 31.9718L6.55231 36.4483C6.43815 36.5637 6.37402 36.7201 6.37402 36.8832C6.37402 37.0463 6.43815 37.2027 6.55231 37.3181L8.52205 39.3065C8.57857 39.3637 8.64569 39.409 8.71959 39.44C8.79348 39.4709 8.87269 39.4868 8.95269 39.4868C9.03268 39.4868 9.11189 39.4709 9.18578 39.44C9.25968 39.409 9.3268 39.3637 9.38332 39.3065L13.8157 34.8293L17.5355 38.5858C17.6207 38.672 17.7293 38.7307 17.8475 38.7545C17.9657 38.7783 18.0883 38.7661 18.1997 38.7195C18.311 38.6729 18.4062 38.5939 18.4731 38.4926C18.54 38.3914 18.5756 38.2723 18.5754 38.1506V27.7795C18.575 27.6165 18.5107 27.4603 18.3965 27.3452C18.2823 27.2301 18.1276 27.1654 17.9662 27.1653ZM17.3583 36.667L14.2481 33.5257C14.1338 33.4104 13.9789 33.3457 13.8173 33.3457C13.6558 33.3457 13.5008 33.4104 13.3865 33.5257L8.95269 38.0018L7.84493 36.8832L12.2774 32.4071C12.334 32.35 12.3789 32.2822 12.4095 32.2075C12.4402 32.1329 12.456 32.0528 12.456 31.972C12.456 31.8912 12.4402 31.8112 12.4095 31.7365C12.3789 31.6619 12.334 31.5941 12.2774 31.537L9.16713 28.3958H17.3583V36.667Z" fill="black"/>
<path d="M34.4546 31.9715L38.1744 28.2158C38.2597 28.1297 38.3178 28.02 38.3413 27.9007C38.3648 27.7813 38.3528 27.6575 38.3066 27.545C38.2605 27.4326 38.1823 27.3364 38.0821 27.2688C37.9818 27.2012 37.864 27.1652 37.7434 27.1653H27.4735C27.3119 27.1653 27.157 27.2301 27.0427 27.3455C26.9284 27.4609 26.8643 27.6173 26.8643 27.7805V38.1516C26.8642 38.2734 26.8999 38.3924 26.9668 38.4936C27.0337 38.5949 27.1289 38.6738 27.2403 38.7204C27.3517 38.767 27.4742 38.7792 27.5925 38.7554C27.7107 38.7316 27.8193 38.673 27.9045 38.5868L31.6236 34.829L36.0564 39.3047C36.1129 39.3619 36.18 39.4073 36.2539 39.4382C36.3278 39.4691 36.407 39.4851 36.487 39.4851C36.567 39.4851 36.6462 39.4691 36.7201 39.4382C36.794 39.4073 36.8611 39.3619 36.9176 39.3047L38.887 37.3163C38.9436 37.2592 38.9885 37.1914 39.0192 37.1168C39.0498 37.0422 39.0656 36.9622 39.0656 36.8814C39.0656 36.8006 39.0498 36.7206 39.0192 36.646C38.9885 36.5714 38.9436 36.5036 38.887 36.4465L34.4546 31.9715ZM36.487 38.0015L32.0542 33.5254C31.9977 33.4682 31.9306 33.4229 31.8567 33.3919C31.7828 33.361 31.7036 33.3451 31.6236 33.3451C31.5436 33.3451 31.4644 33.361 31.3905 33.3919C31.3166 33.4229 31.2495 33.4682 31.1929 33.5254L28.0813 36.6663V28.3954H36.2712L33.1641 31.5366C33.1074 31.5937 33.0625 31.6615 33.0319 31.7362C33.0012 31.8108 32.9855 31.8909 32.9855 31.9717C32.9855 32.0525 33.0012 32.1325 33.0319 32.2072C33.0625 32.2818 33.1074 32.3496 33.1641 32.4067L37.5965 36.8828L36.487 38.0015Z" fill="black"/>
<path d="M22.7193 19.2668C21.9922 19.2668 21.2814 19.4846 20.6769 19.8925C20.0723 20.3004 19.6011 20.8801 19.3229 21.5585C19.0446 22.2368 18.9718 22.9832 19.1136 23.7034C19.2554 24.4235 19.6054 25.085 20.1195 25.6042C20.6335 26.1235 21.2885 26.4771 22.0016 26.6204C22.7147 26.7638 23.4539 26.6903 24.1256 26.4095C24.7974 26.1286 25.3716 25.6528 25.7756 25.0424C26.1797 24.432 26.3954 23.7143 26.3955 22.98C26.3947 21.9956 26.0071 21.0518 25.3179 20.3556C24.6287 19.6594 23.6941 19.2679 22.7193 19.2668ZM22.7193 25.461C22.2331 25.461 21.7579 25.3154 21.3537 25.0427C20.9494 24.7699 20.6344 24.3822 20.4484 23.9286C20.2624 23.475 20.2138 22.9759 20.3087 22.4944C20.4037 22.0129 20.6378 21.5706 20.9817 21.2236C21.3255 20.8765 21.7636 20.6402 22.2404 20.5445C22.7172 20.4489 23.2115 20.4982 23.6605 20.6862C24.1096 20.8742 24.4934 21.1925 24.7634 21.6008C25.0333 22.0091 25.1773 22.4891 25.1771 22.98C25.1761 23.6379 24.9167 24.2685 24.456 24.7336C23.9953 25.1987 23.3707 25.4603 22.7193 25.461Z" fill="black"/>
</g>
<defs>
<clipPath id="clip0_56_288">
<rect width="44.561" height="45" fill="white" transform="translate(0.438965 0.481689)"/>
</clipPath>
</defs>
</svg>
