<svg id="Line" viewBox="0 0 64 64" xmlns="http://www.w3.org/2000/svg"><path d="m58 28h-2.33887c-.60352-3.56982-2.00879-6.96094-4.10352-9.90088l1.65918-1.65137c.77487-.74219.77702-2.09316-.00003-2.83496.00003 0-2.82908-2.8291-2.82908-2.8291-.75488-.75537-2.07617-.7583-2.83691.00098 0 0-1.65039 1.65723-1.65039 1.65723-2.93945-2.09424-6.33105-3.49951-9.90039-4.10254v-2.33936c0-1.10303-.89746-2-2-2h-4c-1.10254 0-2 .89697-2 2v2.33936c-3.56934.60303-6.96094 2.0083-9.90039 4.10254l-1.65234-1.65918c-.75586-.75537-2.08008-.75391-2.83398.00049 0 0-2.83008 2.8291-2.83008 2.8291-.37793.37744-.58594.88086-.58594 1.41797-.0834 1.20077 1.48739 2.20069 2.2451 3.06888-2.0947 2.93991-3.49998 6.33102-4.10349 9.90085h-2.33887c-1.10254 0-2 .89697-2 2v4c0 1.10303.89746 2 2 2h2.33887c.60352 3.56982 2.00879 6.96094 4.10352 9.90088l-1.65918 1.65137c-.77513.74194-.77683 2.09334.00002 2.83496-.00002 0 2.82908 2.8291 2.82908 2.8291.75586.75488 2.07715.75879 2.83691-.00098 0 0 1.65039-1.65723 1.65039-1.65723 2.93945 2.09424 6.33105 3.49951 9.90039 4.10254v2.33936c0 1.10303.89746 2 2 2h4c1.10254 0 2-.89697 2-2 .06726-.75634-.12407-1.48129-1.00004-1.52002-.5527 0-.99996.44776-.99996 1v.52002h-4v-3.2002c0-.50195-.37207-.92627-.87012-.9917-3.83008-.50293-7.46875-2.01074-10.51953-4.36035-.39844-.30664-.96289-.26855-1.31934.08691l-2.26367 2.26807s-2.83105-2.83447-2.83105-2.83447 2.26953-2.25977 2.26953-2.25977c.35645-.35498.39355-.91992.08594-1.31885-2.34863-3.05029-3.85645-6.68799-4.36035-10.52002-.06543-.49756-.48926-.86963-.99121-.86963h-3.2002s0-4 0-4h3.2002c.50195 0 .92578-.37207.99121-.86963.50391-3.83203 2.01172-7.46973 4.36035-10.52002.30762-.39893.27051-.96387-.08594-1.31885l-2.26855-2.26465 2.83398-2.83105s2.25977 2.26953 2.25977 2.26953c.35547.35596.9209.39355 1.31934.08691 3.05078-2.34961 6.68945-3.85742 10.51953-4.36035.49805-.06543.87012-.48975.87012-.9917v-3.2002h4v3.2002c0 .50195.37207.92627.87012.9917 3.83008.50293 7.46875 2.01074 10.51953 4.36035.39844.30713.96387.27002 1.31934-.08691l2.26367-2.26807s2.83105 2.83447 2.83105 2.83447-2.26953 2.25977-2.26953 2.25977c-.35645.35498-.39355.91992-.08594 1.31885 2.34863 3.05029 3.85645 6.68799 4.36035 10.52002.06543.49756.48926.86963.99121.86963h3.2002v4s-.51953 0-.51953 0c-1.32658.02455-1.30375 1.98075.00003 2 1.28442.15327 2.51164-.61715 2.51948-2.00005.00002.00005.00002-3.99995.00002-3.99995 0-1.10303-.89746-2-2-2z"/><path d="m32 16c7.84766 0 14.64551 5.8418 15.81055 13.58887.21196 1.29757 2.15573 1.00312 1.9785-.2979-4.04682-21.79237-35.08829-19.50447-35.78906 2.7092.00001 8.83528 6.57814 16.48714 15.30177 17.79866.53491.08311 1.0574-.29087 1.13769-.83985.08203-.54638-.29394-1.05566-.84082-1.13769-19.37328-3.59325-17.35137-31.19748 2.40137-31.82129z"/><path d="m51.07031 55.31201 3.81055 3.80957c2.85821 2.72419 6.9677-1.36657 4.24114-4.24079.00007.00007-3.8095-3.81097-3.8095-3.81097 2.7666-4.67627 2.0459-10.68262-1.84766-14.57568-4.67969-4.67871-12.29102-4.67871-16.9707 0-9.71745 10.20103 2.3321 25.6848 14.57617 18.81787zm-13.16211-17.40381c3.89844-3.89844 10.24414-3.89844 14.14258 0 3.40918 3.40967 3.89844 8.76514 1.16309 12.7334-.27441.39697-.22461.93311.11621 1.27441l4.37793 4.37891c.90907.94704-.46085 2.30737-1.41312 1.41256.00004.00004-4.37887-4.3774-4.37887-4.3774-.19336-.19336-.44922-.29297-.70703-.29297-.19727 0-.39551.05811-.56738.17676-3.96973 2.73584-9.32324 2.24561-12.7334-1.16309-3.89941-3.89893-3.89941-10.24365 0-14.14258z"/><path d="m43.27246 47.68652c.39062.39062 1.02344.39062 1.41406 0l4-4c.39062-.39062.39062-1.02344 0-1.41406s-1.02344-.39062-1.41406 0l-3.29297 3.29297-1.29297-1.29297c-.92677-.92055-2.33587.48544-1.41401 1.4141-.00005-.00004 1.99995 1.99996 1.99995 1.99996z"/></svg>