<svg width="46" height="46" viewBox="0 0 46 46" fill="none" xmlns="http://www.w3.org/2000/svg">
<g clip-path="url(#clip0_56_302)">
<path d="M24.1703 28.242H34.0293C34.1912 28.2419 34.3465 28.177 34.461 28.0617C34.5755 27.9463 34.6399 27.7899 34.64 27.6267V23.4055C34.6399 23.2424 34.5755 23.0859 34.461 22.9706C34.3465 22.8552 34.1912 22.7904 34.0293 22.7903H24.1703C24.0084 22.7904 23.8531 22.8552 23.7386 22.9706C23.624 23.0859 23.5597 23.2424 23.5596 23.4055V27.6267C23.5597 27.7899 23.624 27.9463 23.7386 28.0617C23.8531 28.177 24.0084 28.2419 24.1703 28.242ZM24.781 24.0208H33.4185V27.0115H24.781V24.0208Z" fill="black"/>
<path d="M11.5194 28.242H21.3784C21.5403 28.2419 21.6956 28.177 21.8101 28.0617C21.9247 27.9463 21.989 27.7899 21.9891 27.6267V23.4055C21.989 23.2424 21.9247 23.0859 21.8101 22.9706C21.6956 22.8552 21.5403 22.7904 21.3784 22.7903H11.5194C11.3575 22.7904 11.2022 22.8552 11.0877 22.9706C10.9732 23.0859 10.9088 23.2424 10.9087 23.4055V27.6267C10.9088 27.7899 10.9732 27.9463 11.0877 28.0617C11.2022 28.177 11.3575 28.2419 11.5194 28.242ZM12.1302 24.0208H20.7677V27.0115H12.1302V24.0208Z" fill="black"/>
<path d="M34.0293 37.2161H24.1703C24.0084 37.2162 23.8531 37.281 23.7386 37.3964C23.624 37.5117 23.5597 37.6682 23.5596 37.8313V42.0525C23.5595 42.1334 23.5752 42.2135 23.6059 42.2882C23.6365 42.363 23.6815 42.4309 23.7382 42.4881C23.7949 42.5454 23.8623 42.5908 23.9364 42.6218C24.0105 42.6528 24.09 42.6688 24.1703 42.6688H34.0293C34.1912 42.6687 34.3465 42.6039 34.461 42.4885C34.5755 42.3731 34.6399 42.2167 34.64 42.0536V37.8313C34.6399 37.6682 34.5755 37.5117 34.461 37.3964C34.3465 37.281 34.1912 37.2162 34.0293 37.2161ZM33.4185 41.4383H24.781V38.4465H33.4185V41.4383Z" fill="black"/>
<path d="M17.8446 29.8254C17.6827 29.8255 17.5274 29.8904 17.4129 30.0057C17.2984 30.1211 17.234 30.2775 17.2339 30.4407V35.0191C17.2339 35.1822 17.2982 35.3387 17.4128 35.4541C17.5273 35.5695 17.6826 35.6343 17.8446 35.6343H27.7036C27.8656 35.6343 28.0209 35.5695 28.1354 35.4541C28.25 35.3387 28.3143 35.1822 28.3143 35.0191V30.4407C28.3142 30.2775 28.2499 30.1211 28.1353 30.0057C28.0208 29.8904 27.8655 29.8255 27.7036 29.8254H17.8446ZM27.0929 34.4038H18.4554V31.0559H27.0929V34.4038Z" fill="black"/>
<path d="M36.2104 23.4055V27.6267C36.2105 27.7899 36.2749 27.9463 36.3894 28.0617C36.5039 28.177 36.6592 28.2419 36.8212 28.242H41.707C41.869 28.2419 42.0243 28.177 42.1388 28.0617C42.2533 27.9463 42.3177 27.7899 42.3178 27.6267V23.4055C42.3177 23.2424 42.2533 23.0859 42.1388 22.9706C42.0243 22.8552 41.869 22.7904 41.707 22.7903H36.8212C36.6592 22.7904 36.5039 22.8552 36.3894 22.9706C36.2749 23.0859 36.2105 23.2424 36.2104 23.4055ZM37.4319 24.0208H41.0963V27.0115H37.4319V24.0208Z" fill="black"/>
<path d="M8.72755 37.2161H3.84169C3.67974 37.2162 3.52445 37.281 3.40994 37.3964C3.29542 37.5117 3.23105 37.6682 3.23096 37.8313V42.0525C3.23087 42.1334 3.24659 42.2135 3.27724 42.2882C3.30789 42.363 3.35285 42.4309 3.40957 42.4881C3.46629 42.5454 3.53364 42.5908 3.60779 42.6218C3.68193 42.6528 3.76141 42.6688 3.84169 42.6688H8.72755C8.8895 42.6687 9.04479 42.6039 9.1593 42.4885C9.27382 42.3731 9.33819 42.2167 9.33828 42.0536V37.8313C9.33819 37.6682 9.27382 37.5117 9.1593 37.3964C9.04479 37.281 8.8895 37.2162 8.72755 37.2161ZM8.11682 41.4383H4.45242V38.4465H8.11682V41.4383Z" fill="black"/>
<path d="M41.707 37.2161H36.8212C36.6592 37.2162 36.5039 37.281 36.3894 37.3964C36.2749 37.5117 36.2105 37.6682 36.2104 37.8313V42.0525C36.2105 42.2157 36.2749 42.3721 36.3894 42.4874C36.5039 42.6028 36.6592 42.6677 36.8212 42.6677H41.707C41.869 42.6677 42.0243 42.6028 42.1388 42.4874C42.2533 42.3721 42.3177 42.2157 42.3178 42.0525V37.8313C42.3177 37.6682 42.2533 37.5117 42.1388 37.3964C42.0243 37.281 41.869 37.2162 41.707 37.2161ZM41.0963 41.4383H37.4319V38.4465H41.0963V41.4383Z" fill="black"/>
<path d="M3.84169 28.242H8.72755C8.8895 28.2419 9.04479 28.177 9.1593 28.0617C9.27382 27.9463 9.33819 27.7899 9.33828 27.6267V23.4055C9.33819 23.2424 9.27382 23.0859 9.1593 22.9706C9.04479 22.8552 8.8895 22.7904 8.72755 22.7903H3.84169C3.67974 22.7904 3.52445 22.8552 3.40994 22.9706C3.29542 23.0859 3.23105 23.2424 3.23096 23.4055V27.6267C3.23105 27.7899 3.29542 27.9463 3.40994 28.0617C3.52445 28.177 3.67974 28.2419 3.84169 28.242ZM4.45242 24.0208H8.11682V27.0115H4.45242V24.0208Z" fill="black"/>
<path d="M21.3784 37.2161H11.5194C11.3575 37.2162 11.2022 37.281 11.0877 37.3964C10.9732 37.5117 10.9088 37.6682 10.9087 37.8313V42.0525C10.9086 42.1334 10.9243 42.2135 10.955 42.2882C10.9856 42.363 11.0306 42.4309 11.0873 42.4881C11.144 42.5454 11.2114 42.5908 11.2855 42.6218C11.3597 42.6528 11.4391 42.6688 11.5194 42.6688H21.3784C21.5403 42.6687 21.6956 42.6039 21.8101 42.4885C21.9247 42.3731 21.989 42.2167 21.9891 42.0536V37.8313C21.989 37.6682 21.9247 37.5117 21.8101 37.3964C21.6956 37.281 21.5403 37.2162 21.3784 37.2161ZM20.7677 41.4383H12.1302V38.4465H20.7677V41.4383Z" fill="black"/>
<path d="M41.7068 29.8254H30.4955C30.3336 29.8255 30.1783 29.8904 30.0637 30.0057C29.9492 30.1211 29.8849 30.2775 29.8848 30.4407V35.0191C29.8848 35.1822 29.9491 35.3387 30.0636 35.4541C30.1782 35.5695 30.3335 35.6343 30.4955 35.6343H41.7068C41.8688 35.6343 42.0241 35.5695 42.1387 35.4541C42.2532 35.3387 42.3175 35.1822 42.3175 35.0191V30.4407C42.3174 30.2775 42.2531 30.1211 42.1386 30.0057C42.024 29.8904 41.8688 29.8255 41.7068 29.8254ZM41.0961 34.4038H31.1062V31.0559H41.0961V34.4038Z" fill="black"/>
<path d="M3.84169 35.6343H15.053C15.215 35.6343 15.3703 35.5695 15.4848 35.4541C15.5994 35.3387 15.6637 35.1822 15.6637 35.0191V30.4407C15.6636 30.2775 15.5993 30.1211 15.4847 30.0057C15.3702 29.8904 15.2149 29.8255 15.053 29.8254H3.84169C3.67974 29.8255 3.52445 29.8904 3.40994 30.0057C3.29542 30.1211 3.23105 30.2775 3.23096 30.4407V35.0191C3.23096 35.1822 3.2953 35.3387 3.40984 35.4541C3.52437 35.5695 3.67971 35.6343 3.84169 35.6343ZM4.45242 31.0559H14.4423V34.4038H4.45242V31.0559Z" fill="black"/>
<path d="M44.499 0.481689H40.1802C40.0183 0.481783 39.863 0.546632 39.7485 0.66199C39.6339 0.777349 39.5696 0.933782 39.5695 1.09692V4.80978H33.1987L34.455 3.49563C34.5675 3.3782 34.629 3.22057 34.6261 3.05742C34.6232 2.89428 34.5561 2.73898 34.4395 2.62569C34.3229 2.51241 34.1664 2.45041 34.0045 2.45334C33.8425 2.45628 33.6884 2.5239 33.5759 2.64134L31.7612 4.53978L29.9464 2.64134C29.834 2.52386 29.6798 2.45619 29.5178 2.45322C29.3558 2.45025 29.1993 2.51223 29.0827 2.62552C28.9661 2.7388 28.8989 2.89412 28.8959 3.0573C28.893 3.22048 28.9545 3.37815 29.067 3.49563L30.3251 4.80978H24.2118L25.4699 3.49563C25.5824 3.37815 25.6439 3.22048 25.641 3.0573C25.638 2.89412 25.5708 2.7388 25.4542 2.62552C25.3376 2.51223 25.1811 2.45025 25.0191 2.45322C24.8571 2.45619 24.7029 2.52386 24.5905 2.64134L22.7743 4.53872L20.9596 2.64028C20.8471 2.5228 20.6929 2.45513 20.531 2.45217C20.369 2.4492 20.2125 2.51118 20.0958 2.62446C19.9792 2.73775 19.912 2.89307 19.9091 3.05625C19.9061 3.21942 19.9677 3.3771 20.0801 3.49458L21.3365 4.80872H15.225L16.4813 3.49458C16.5938 3.3771 16.6553 3.21942 16.6524 3.05625C16.6494 2.89307 16.5823 2.73775 16.4656 2.62446C16.349 2.51118 16.1925 2.4492 16.0305 2.45217C15.8685 2.45513 15.7143 2.5228 15.6019 2.64028L13.7871 4.53872L11.9724 2.64028C11.9167 2.58213 11.8502 2.5356 11.7767 2.50335C11.7031 2.47109 11.624 2.45374 11.5438 2.45229C11.4636 2.45084 11.3839 2.46531 11.3093 2.49488C11.2347 2.52445 11.1665 2.56854 11.1088 2.62464C11.0511 2.68073 11.0049 2.74773 10.9729 2.82181C10.9409 2.89588 10.9236 2.97559 10.9222 3.05637C10.9208 3.13715 10.9351 3.21743 10.9645 3.29262C10.9938 3.3678 11.0376 3.43643 11.0933 3.49458L12.3496 4.80872H5.97918V1.09587C5.97881 0.93291 5.91432 0.776748 5.79983 0.661617C5.68535 0.546486 5.53022 0.481782 5.36845 0.481689L1.0497 0.481689C0.887931 0.481782 0.732801 0.546486 0.618316 0.661617C0.503832 0.776748 0.439335 0.93291 0.438965 1.09587V44.8654C0.438874 44.9463 0.4546 45.0264 0.485247 45.1011C0.515894 45.1759 0.56086 45.2438 0.617577 45.301C0.674293 45.3582 0.741648 45.4037 0.815793 45.4347C0.889938 45.4657 0.96942 45.4816 1.0497 45.4817H44.499C44.6609 45.4816 44.8162 45.4167 44.9307 45.3014C45.0452 45.186 45.1096 45.0296 45.1097 44.8665V1.09587C45.1093 0.93291 45.0448 0.776748 44.9303 0.661617C44.8159 0.546486 44.6607 0.481782 44.499 0.481689ZM40.7909 1.71216H43.8882V19.9793H40.7909V1.71216ZM5.97918 19.9793V14.8033H12.35L11.0936 16.1174C10.9812 16.2349 10.9196 16.3925 10.9225 16.5556C10.9255 16.7188 10.9926 16.8741 11.1092 16.9874C11.2257 17.1007 11.3822 17.1627 11.5442 17.1597C11.7061 17.1568 11.8603 17.0892 11.9727 16.9717L13.7875 15.0733L15.6022 16.9717C15.7147 17.0892 15.8689 17.1569 16.0309 17.1598C16.1928 17.1628 16.3494 17.1008 16.466 16.9875C16.5826 16.8743 16.6498 16.7189 16.6527 16.5558C16.6557 16.3926 16.5941 16.2349 16.4817 16.1174L15.2253 14.8033H21.3368L20.0805 16.1174C19.968 16.2349 19.9065 16.3926 19.9094 16.5558C19.9124 16.7189 19.9796 16.8743 20.0962 16.9875C20.2128 17.1008 20.3693 17.1628 20.5313 17.1598C20.6933 17.1569 20.8475 17.0892 20.9599 16.9717L22.7747 15.0733L24.5894 16.9717C24.7019 17.0892 24.8561 17.1569 25.0181 17.1598C25.18 17.1628 25.3366 17.1008 25.4532 16.9875C25.5698 16.8743 25.637 16.7189 25.6399 16.5558C25.6429 16.3926 25.5813 16.2349 25.4689 16.1174L24.2108 14.8033H30.3237L29.0656 16.1174C28.9531 16.2349 28.8916 16.3926 28.8945 16.5558C28.8975 16.7189 28.9647 16.8743 29.0813 16.9875C29.1979 17.1008 29.3544 17.1628 29.5164 17.1598C29.6784 17.1569 29.8326 17.0892 29.945 16.9717L31.7598 15.0733L33.5745 16.9717C33.6302 17.0299 33.6967 17.0764 33.7703 17.1087C33.8438 17.1409 33.9229 17.1583 34.0031 17.1597C34.0833 17.1612 34.163 17.1467 34.2376 17.1171C34.3123 17.0876 34.3804 17.0435 34.4381 16.9874C34.4958 16.9313 34.542 16.8643 34.574 16.7902C34.6061 16.7161 34.6233 16.6364 34.6247 16.5556C34.6262 16.4749 34.6118 16.3946 34.5824 16.3194C34.5531 16.2442 34.5093 16.1756 34.4536 16.1174L33.1973 14.8033H39.5681V19.9793H5.97918ZM12.35 6.04024L11.0936 7.35438C10.9812 7.47182 10.9196 7.62945 10.9225 7.7926C10.9255 7.95574 10.9926 8.11104 11.1092 8.22433C11.2257 8.33761 11.3822 8.39961 11.5442 8.39667C11.7061 8.39374 11.8603 8.32612 11.9727 8.20868L13.7875 6.31024L15.6022 8.20868C15.6579 8.26685 15.7244 8.31341 15.798 8.34568C15.8715 8.37796 15.9507 8.39533 16.0309 8.3968C16.1111 8.39827 16.1908 8.38381 16.2654 8.35425C16.3401 8.32468 16.4082 8.2806 16.466 8.2245C16.5237 8.16841 16.5699 8.10141 16.602 8.02732C16.634 7.95323 16.6513 7.87352 16.6527 7.79272C16.6542 7.71192 16.6398 7.63163 16.6105 7.55642C16.5811 7.48121 16.5374 7.41256 16.4817 7.35438L15.2253 6.04024H21.3368L20.0805 7.35438C19.968 7.47187 19.9065 7.62954 19.9094 7.79272C19.9124 7.9559 19.9796 8.11122 20.0962 8.2245C20.2128 8.33779 20.3693 8.39977 20.5313 8.3968C20.6933 8.39383 20.8475 8.32616 20.9599 8.20868L22.7747 6.31024L24.5894 8.20868C24.7019 8.32616 24.8561 8.39383 25.0181 8.3968C25.18 8.39977 25.3366 8.33779 25.4532 8.2245C25.5698 8.11122 25.637 7.9559 25.6399 7.79272C25.6429 7.62954 25.5813 7.47187 25.4689 7.35438L24.2108 6.04024H30.3237L29.0656 7.35438C28.9531 7.47187 28.8916 7.62954 28.8945 7.79272C28.8975 7.9559 28.9647 8.11122 29.0813 8.2245C29.1979 8.33779 29.3544 8.39977 29.5164 8.3968C29.6784 8.39383 29.8326 8.32616 29.945 8.20868L31.7598 6.31024L33.5745 8.20868C33.687 8.32612 33.8411 8.39374 34.0031 8.39667C34.1651 8.39961 34.3215 8.33761 34.4381 8.22433C34.5547 8.11104 34.6218 7.95574 34.6247 7.7926C34.6276 7.62945 34.5661 7.47182 34.4536 7.35438L33.1973 6.04024H39.5681V13.5728H33.1987L34.455 12.2583C34.5125 12.2006 34.558 12.1318 34.5888 12.0561C34.6196 11.9805 34.6351 11.8993 34.6344 11.8175C34.6337 11.7358 34.6168 11.6549 34.5848 11.5798C34.5527 11.5046 34.5061 11.4367 34.4476 11.3799C34.3892 11.3231 34.3201 11.2787 34.2444 11.2491C34.1686 11.2196 34.0878 11.2055 34.0067 11.2078C33.9255 11.2101 33.8456 11.2286 33.7716 11.2624C33.6977 11.2961 33.6311 11.3444 33.5759 11.4044L31.7612 13.3028L29.9464 11.4044C29.834 11.2869 29.6799 11.2192 29.5179 11.2162C29.356 11.2132 29.1995 11.2751 29.0828 11.3884C28.9662 11.5016 28.899 11.6569 28.8961 11.82C28.8931 11.9832 28.9546 12.1408 29.067 12.2583L30.3251 13.5728H24.2118L25.4699 12.259C25.5823 12.1416 25.6438 11.9839 25.6408 11.8207C25.6379 11.6576 25.5707 11.5023 25.4541 11.3891C25.3374 11.2759 25.1809 11.2139 25.019 11.2169C24.857 11.2199 24.7029 11.2876 24.5905 11.4051L22.7757 13.3035L20.961 11.4051C20.9053 11.3469 20.8388 11.3004 20.7653 11.2681C20.6918 11.2358 20.6127 11.2184 20.5325 11.2169C20.4523 11.2154 20.3726 11.2299 20.2979 11.2594C20.2233 11.289 20.1551 11.333 20.0974 11.3891C20.0397 11.4452 19.9934 11.5121 19.9614 11.5862C19.9293 11.6603 19.9121 11.74 19.9106 11.8207C19.9091 11.9015 19.9235 11.9818 19.9528 12.057C19.9821 12.1322 20.0259 12.2009 20.0815 12.259L21.3379 13.5735H15.225L16.4813 12.259C16.5938 12.1416 16.6552 11.9839 16.6523 11.8207C16.6493 11.6576 16.5821 11.5023 16.4655 11.3891C16.3488 11.2759 16.1923 11.2139 16.0304 11.2169C15.8684 11.2199 15.7143 11.2876 15.6019 11.4051L13.7871 13.3035L11.9724 11.4051C11.86 11.2875 11.7058 11.2197 11.5438 11.2167C11.3818 11.2136 11.2252 11.2755 11.1085 11.3887C10.9917 11.502 10.9245 11.6573 10.9214 11.8205C10.9184 11.9837 10.9798 12.1415 11.0922 12.259L12.3486 13.5735H5.97918V6.04024H12.35ZM1.66043 1.71216H4.75772V19.9793H1.66043V1.71216ZM43.8882 44.2512H1.66043V21.2098H43.8882V44.2512Z" fill="black"/>
</g>
<defs>
<clipPath id="clip0_56_302">
<rect width="44.6707" height="45" fill="white" transform="translate(0.438965 0.481689)"/>
</clipPath>
</defs>
</svg>
