<svg width="54" height="54" viewBox="0 0 54 54" fill="none" xmlns="http://www.w3.org/2000/svg">
<path d="M34.6116 41.0832C33.8836 41.0852 33.1625 40.9432 32.4897 40.6654C31.8169 40.3875 31.2057 39.9793 30.6913 39.4643L21.7264 30.4994C21.653 30.426 21.5947 30.3387 21.5549 30.2427C21.5151 30.1467 21.4947 30.0438 21.4947 29.9399C21.4947 29.836 21.5151 29.7331 21.5549 29.6371C21.5947 29.5411 21.653 29.4539 21.7264 29.3804C21.7999 29.3069 21.8871 29.2487 21.9831 29.2089C22.0791 29.1691 22.182 29.1487 22.2859 29.1487C22.3899 29.1487 22.4927 29.1691 22.5887 29.2089C22.6848 29.2487 22.772 29.3069 22.8455 29.3804L31.8103 38.3453C32.5524 39.0849 33.5575 39.5002 34.6052 39.5002C35.653 39.5002 36.658 39.0849 37.4001 38.3453L45.381 30.375C46.1214 29.6322 46.5372 28.6262 46.5372 27.5774C46.5372 26.5286 46.1214 25.5226 45.381 24.7799L34.5177 13.9166C34.3693 13.7682 34.2859 13.5669 34.2859 13.3571C34.2859 13.1472 34.3693 12.946 34.5177 12.7976C34.6661 12.6492 34.8673 12.5658 35.0772 12.5658C35.2871 12.5658 35.4883 12.6492 35.6367 12.7976L46.5 23.6609C47.5373 24.7001 48.1199 26.1085 48.1199 27.5769C48.1199 29.0453 47.5373 30.4537 46.5 31.493L38.5276 39.4643C38.0137 39.9788 37.4031 40.3867 36.7311 40.6645C36.0591 40.9423 35.3388 41.0846 34.6116 41.0832ZM15.8982 24.339C15.7419 24.3389 15.5891 24.2924 15.4591 24.2055C15.3292 24.1186 15.2279 23.9951 15.1681 23.8506C15.1083 23.7062 15.0926 23.5472 15.1231 23.3939C15.1535 23.2405 15.2288 23.0996 15.3392 22.989L27.5884 10.7399C27.6619 10.6664 27.7491 10.6081 27.8451 10.5683C27.9411 10.5286 28.044 10.5081 28.1479 10.5081C28.2518 10.5081 28.3547 10.5286 28.4507 10.5683C28.5467 10.6081 28.6339 10.6664 28.7074 10.7399C28.7809 10.8134 28.8392 10.9006 28.8789 10.9966C28.9187 11.0926 28.9392 11.1955 28.9392 11.2994C28.9392 11.4033 28.9187 11.5062 28.8789 11.6022C28.8392 11.6982 28.7809 11.7854 28.7074 11.8589L16.453 24.108C16.3059 24.2553 16.1064 24.3383 15.8982 24.339Z" fill="white"/>
<path d="M39.2578 42.3425C39.0315 42.35 38.8061 42.3112 38.5954 42.2285C38.3847 42.1458 38.193 42.021 38.0322 41.8616L36.4017 40.2311C36.2533 40.0827 36.1699 39.8814 36.1699 39.6716C36.1699 39.4617 36.2533 39.2604 36.4017 39.112C36.5501 38.9636 36.7513 38.8803 36.9612 38.8803C37.171 38.8803 37.3723 38.9636 37.5207 39.112L39.1512 40.7426C39.4592 40.9335 41.4589 40.1941 44.3435 37.3096C47.228 34.425 47.9695 32.4243 47.7775 32.1142L46.148 30.4805C46.004 30.3312 45.9244 30.1314 45.9263 29.924C45.9282 29.7166 46.0115 29.5182 46.1582 29.3716C46.3049 29.225 46.5034 29.1419 46.7108 29.1402C46.9182 29.1385 47.118 29.2183 47.2671 29.3625L48.8976 30.9931C50.7518 32.8472 46.7376 37.1493 45.4636 38.4233C44.4215 39.4696 41.3555 42.3425 39.2578 42.3425Z" fill="white"/>
<path d="M31.2547 39.6953C31.0983 39.6951 30.9455 39.6487 30.8156 39.5617C30.6856 39.4748 30.5843 39.3513 30.5245 39.2069C30.4647 39.0624 30.4491 38.9035 30.4795 38.7501C30.51 38.5968 30.5852 38.4559 30.6957 38.3453L45.3812 23.6598C45.4542 23.5843 45.5415 23.5241 45.638 23.4827C45.7345 23.4412 45.8383 23.4195 45.9434 23.4186C46.0484 23.4177 46.1525 23.4378 46.2497 23.4776C46.3469 23.5174 46.4352 23.5762 46.5095 23.6505C46.5837 23.7248 46.6424 23.8132 46.6821 23.9104C46.7218 24.0076 46.7418 24.1118 46.7408 24.2168C46.7399 24.3219 46.718 24.4257 46.6765 24.5221C46.635 24.6186 46.5747 24.7059 46.4991 24.7788L31.8147 39.4643C31.666 39.6124 31.4646 39.6955 31.2547 39.6953Z" fill="white"/>
<path d="M28.7792 37.2199C28.6227 37.22 28.4698 37.1737 28.3397 37.0868C28.2096 37 28.1081 36.8765 28.0482 36.732C27.9882 36.5875 27.9725 36.4285 28.0029 36.275C28.0333 36.1216 28.1086 35.9806 28.2191 35.8699L42.9046 21.1845C43.053 21.0361 43.2543 20.9527 43.4641 20.9527C43.674 20.9527 43.8752 21.0361 44.0236 21.1845C44.172 21.3328 44.2554 21.5341 44.2554 21.744C44.2554 21.9538 44.172 22.1551 44.0236 22.3035L29.3382 36.9879C29.265 37.0616 29.1779 37.1201 29.0819 37.16C28.986 37.1998 28.8831 37.2202 28.7792 37.2199Z" fill="white"/>
<path d="M43.4361 27.5147C43.3783 27.5145 43.3207 27.5082 43.2642 27.4957L39.2142 26.5939C39.1116 26.5726 39.0143 26.531 38.9279 26.4717C38.8415 26.4124 38.7677 26.3365 38.7109 26.2485C38.6541 26.1605 38.6153 26.062 38.5968 25.9588C38.5784 25.8557 38.5806 25.7499 38.6034 25.6476C38.6262 25.5453 38.669 25.4486 38.7295 25.363C38.79 25.2774 38.8669 25.2047 38.9557 25.1491C39.0445 25.0935 39.1435 25.0561 39.2469 25.039C39.3503 25.022 39.4561 25.0257 39.5581 25.0499L43.6081 25.9516C43.7981 25.994 43.9659 26.1051 44.0792 26.2635C44.1925 26.4219 44.2434 26.6165 44.2221 26.8101C44.2008 27.0037 44.1088 27.1826 43.9638 27.3126C43.8188 27.4426 43.6309 27.5146 43.4361 27.5147Z" fill="white"/>
<path d="M39.3851 31.5658C39.3269 31.5662 39.2689 31.5598 39.2122 31.5468L35.1622 30.645C34.9599 30.597 34.7846 30.4714 34.6743 30.2951C34.564 30.1189 34.5274 29.9064 34.5726 29.7034C34.6178 29.5005 34.7411 29.3235 34.9157 29.2108C35.0904 29.098 35.3025 29.0586 35.506 29.101L39.556 30.0027C39.746 30.0451 39.9137 30.1561 40.027 30.3144C40.1403 30.4727 40.1912 30.6672 40.1701 30.8607C40.1489 31.0542 40.0571 31.2331 39.9123 31.3632C39.7675 31.4933 39.5798 31.5654 39.3851 31.5658Z" fill="white"/>
<path d="M35.3321 35.6179C35.2739 35.6177 35.2159 35.6114 35.1591 35.5989L31.1133 34.6992C30.911 34.6512 30.7358 34.5256 30.6255 34.3493C30.5151 34.1731 30.4786 33.9606 30.5238 33.7576C30.569 33.5547 30.6922 33.3777 30.8669 33.265C31.0416 33.1522 31.2536 33.1128 31.4572 33.1552L35.5072 34.0569C35.6955 34.1013 35.861 34.2131 35.9724 34.3712C36.0838 34.5293 36.1335 34.7228 36.1119 34.915C36.0903 35.1073 35.9991 35.285 35.8554 35.4145C35.7117 35.544 35.5255 35.6163 35.3321 35.6179Z" fill="white"/>
<path d="M16.9436 38.8589C16.4563 38.8584 15.9891 38.6643 15.6447 38.3194C15.3004 37.9745 15.1071 37.5069 15.1074 37.0196V23.548C15.1074 23.3382 15.1908 23.137 15.3391 22.9887C15.4874 22.8404 15.6886 22.757 15.8984 22.757C16.1082 22.757 16.3094 22.8404 16.4578 22.9887C16.6061 23.137 16.6895 23.3382 16.6895 23.548V37.0196C16.6976 37.0837 16.7289 37.1428 16.7774 37.1855C16.8259 37.2283 16.8884 37.2519 16.9531 37.2519C17.0178 37.2519 17.0803 37.2283 17.1288 37.1855C17.1774 37.1428 17.2087 37.0837 17.2168 37.0196V32.1617C17.2174 31.6747 17.4111 31.2078 17.7556 30.8635C18.1001 30.5192 18.5671 30.3257 19.0541 30.3255C20.1351 30.3255 20.9525 31.1144 20.9525 32.1617V34.9038C20.9533 34.971 20.9804 35.0352 21.0279 35.0827C21.0753 35.1302 21.1395 35.1572 21.2067 35.158C21.3438 35.158 21.502 35.0916 21.502 34.9038V17.1524C21.502 16.9426 21.5853 16.7414 21.7337 16.5931C21.882 16.4447 22.0832 16.3614 22.293 16.3614C22.5028 16.3614 22.704 16.4447 22.8523 16.5931C23.0007 16.7414 23.084 16.9426 23.084 17.1524V34.9102C23.0725 35.395 22.8718 35.856 22.5248 36.1948C22.1779 36.5336 21.7122 36.7232 21.2272 36.7232C20.7423 36.7232 20.2766 36.5336 19.9297 36.1948C19.5827 35.856 19.382 35.395 19.3705 34.9102V32.168C19.3705 31.9317 19.13 31.9138 19.0541 31.9138C18.9868 31.9146 18.9225 31.9416 18.8749 31.9891C18.8272 32.0366 18.7999 32.1007 18.7988 32.168V37.0196C18.8004 37.2629 18.7534 37.5041 18.6605 37.729C18.5676 37.9539 18.4308 38.158 18.258 38.3293C18.0852 38.5006 17.8799 38.6357 17.6542 38.7267C17.4285 38.8176 17.1869 38.8626 16.9436 38.8589Z" fill="white"/>
<path d="M35.0757 18.0352C34.8659 18.0352 34.6647 17.9518 34.5164 17.8035C34.368 17.6551 34.2847 17.4539 34.2847 17.2441V3.74414H28.9385V17.2441C28.9385 17.4539 28.8551 17.6551 28.7068 17.8035C28.5584 17.9518 28.3573 18.0352 28.1475 18.0352C27.9377 18.0352 27.7365 17.9518 27.5881 17.8035C27.4398 17.6551 27.3564 17.4539 27.3564 17.2441V2.95312C27.3564 2.74333 27.4398 2.54214 27.5881 2.39379C27.7365 2.24545 27.9377 2.16211 28.1475 2.16211H35.0757C35.2855 2.16211 35.4867 2.24545 35.635 2.39379C35.7834 2.54214 35.8667 2.74333 35.8667 2.95312V17.2389C35.8674 17.3432 35.8475 17.4466 35.808 17.5432C35.7686 17.6398 35.7104 17.7276 35.6369 17.8016C35.5634 17.8756 35.4759 17.9344 35.3796 17.9744C35.2833 18.0145 35.18 18.0352 35.0757 18.0352Z" fill="white"/>
<path d="M31.6109 27.0738C30.4014 27.074 29.2204 26.7071 28.2238 26.0218C27.2272 25.3364 26.4621 24.3647 26.0295 23.2352C25.597 22.1057 25.5173 20.8716 25.8011 19.6958C26.0849 18.5201 26.7188 17.4582 27.6189 16.6504C27.6953 16.5755 27.7859 16.5169 27.8855 16.4781C27.9851 16.4393 28.0915 16.4211 28.1983 16.4245C28.3051 16.428 28.4101 16.4531 28.507 16.4982C28.6038 16.5434 28.6906 16.6077 28.7619 16.6873C28.8332 16.7669 28.8876 16.8601 28.9219 16.9613C28.9562 17.0625 28.9697 17.1696 28.9614 17.2762C28.9532 17.3827 28.9234 17.4865 28.874 17.5813C28.8245 17.676 28.7564 17.7597 28.6736 17.8274C28.0118 18.4215 27.5457 19.2025 27.3371 20.067C27.1285 20.9316 27.1871 21.8392 27.5052 22.6698C27.8233 23.5004 28.3859 24.2149 29.1187 24.7189C29.8515 25.223 30.7199 25.4928 31.6094 25.4928C32.4988 25.4928 33.3672 25.223 34.1 24.7189C34.8328 24.2149 35.3954 23.5004 35.7135 22.6698C36.0316 21.8392 36.0902 20.9316 35.8816 20.067C35.673 19.2025 35.207 18.4215 34.5451 17.8274C34.3997 17.6848 34.3149 17.4917 34.3083 17.2881C34.3017 17.0846 34.3739 16.8864 34.5098 16.7347C34.6457 16.5831 34.8348 16.4896 35.0379 16.4739C35.2409 16.4582 35.4422 16.5214 35.5998 16.6504C36.5 17.4582 37.1339 18.5203 37.4177 19.6961C37.7014 20.8719 37.6217 22.1062 37.189 23.2357C36.7563 24.3653 35.991 25.3369 34.9943 26.0222C33.9975 26.7075 32.8163 27.0742 31.6067 27.0738H31.6109Z" fill="white"/>
<path d="M31.6112 24.1207C31.0133 24.1207 30.4288 23.9434 29.9316 23.6113C29.4344 23.2792 29.0468 22.8071 28.8179 22.2548C28.5889 21.7025 28.5289 21.0946 28.6453 20.5082C28.7617 19.9217 29.0494 19.3829 29.4719 18.9599C29.8945 18.5369 30.433 18.2486 31.0193 18.1316C31.6057 18.0146 32.2136 18.074 32.7662 18.3024C33.3187 18.5308 33.7912 18.9178 34.1238 19.4147C34.4565 19.9115 34.6344 20.4958 34.635 21.0937C34.635 21.896 34.3165 22.6654 33.7495 23.233C33.1825 23.8006 32.4134 24.1199 31.6112 24.1207ZM31.6112 19.6562C31.3259 19.6562 31.0469 19.7409 30.8098 19.8995C30.5726 20.0581 30.3878 20.2835 30.2788 20.5472C30.1698 20.8109 30.1415 21.101 30.1975 21.3808C30.2534 21.6606 30.3912 21.9175 30.5932 22.1189C30.7953 22.3204 31.0526 22.4574 31.3325 22.5125C31.6125 22.5677 31.9025 22.5385 32.1659 22.4288C32.4292 22.319 32.6541 22.1335 32.812 21.8959C32.9699 21.6582 33.0538 21.3791 33.0529 21.0937C33.0516 20.7122 32.8991 20.3467 32.6289 20.0773C32.3587 19.8079 31.9928 19.6565 31.6112 19.6562Z" fill="white"/>
<path d="M50.3327 51.8379H3.66699C3.4572 51.8379 3.256 51.7546 3.10766 51.6062C2.95932 51.4579 2.87598 51.2567 2.87598 51.0469V46.8492C2.87598 46.6395 2.95932 46.4383 3.10766 46.2899C3.256 46.1416 3.4572 46.0582 3.66699 46.0582H50.3327C50.5425 46.0582 50.7437 46.1416 50.892 46.2899C51.0404 46.4383 51.1237 46.6395 51.1237 46.8492V51.0469C51.1237 51.2567 51.0404 51.4579 50.892 51.6062C50.7437 51.7546 50.5425 51.8379 50.3327 51.8379ZM4.45379 50.2559H49.5417V47.6403H4.45801L4.45379 50.2559Z" fill="white"/>
<path d="M26.1974 47.6402C25.9876 47.6402 25.7864 47.5569 25.6381 47.4085C25.4897 47.2602 25.4064 47.059 25.4064 46.8492V42.332H13.2891V46.8492C13.2891 47.059 13.2057 47.2602 13.0574 47.4085C12.909 47.5569 12.7078 47.6402 12.498 47.6402C12.2883 47.6402 12.0871 47.5569 11.9387 47.4085C11.7904 47.2602 11.707 47.059 11.707 46.8492V41.541C11.707 41.3312 11.7904 41.13 11.9387 40.9816C12.0871 40.8333 12.2883 40.7499 12.498 40.7499H26.1974C26.4072 40.7499 26.6084 40.8333 26.7567 40.9816C26.9051 41.13 26.9884 41.3312 26.9884 41.541V46.8492C26.9884 47.059 26.9051 47.2602 26.7567 47.4085C26.6084 47.5569 26.4072 47.6402 26.1974 47.6402Z" fill="white"/>
</svg>
