<svg width="46" height="46" viewBox="0 0 46 46" fill="none" xmlns="http://www.w3.org/2000/svg">
<g clip-path="url(#clip0_56_261)">
<path d="M42.5032 5.22778H3.24178C2.52471 5.22862 1.83725 5.51595 1.33021 6.02673C0.823163 6.53751 0.537941 7.23004 0.537109 7.95239L0.537109 40.1183C0.537202 40.2814 0.601576 40.4378 0.716091 40.5532C0.830606 40.6686 0.985894 40.7334 1.14784 40.7335H44.5971C44.7591 40.7334 44.9143 40.6686 45.0289 40.5532C45.1434 40.4378 45.2077 40.2814 45.2078 40.1183V7.95239C45.207 7.23004 44.9218 6.53751 44.4147 6.02673C43.9077 5.51595 43.2202 5.22862 42.5032 5.22778ZM1.75857 7.95239C1.75904 7.55627 1.91545 7.17649 2.19351 6.89639C2.47156 6.61628 2.84855 6.45872 3.24178 6.45825H42.5032C42.8964 6.45872 43.2734 6.61628 43.5514 6.89639C43.8295 7.17649 43.9859 7.55627 43.9864 7.95239V13.5377H1.75857V7.95239ZM43.9864 39.503H1.75857V14.7681H43.9864V39.503Z" fill="black"/>
<path d="M41.8054 8.04028H15.1122C14.9502 8.04028 14.7949 8.1051 14.6803 8.22048C14.5658 8.33586 14.5015 8.49235 14.5015 8.65552V11.34C14.5015 11.5032 14.5658 11.6597 14.6803 11.7751C14.7949 11.8905 14.9502 11.9553 15.1122 11.9553H41.8054C41.9674 11.9552 42.1226 11.8903 42.2372 11.775C42.3517 11.6596 42.416 11.5032 42.4161 11.34V8.65552C42.416 8.49238 42.3517 8.33594 42.2372 8.22058C42.1226 8.10523 41.9674 8.04038 41.8054 8.04028ZM41.1947 10.7248H15.7229V9.27075H41.1947V10.7248Z" fill="black"/>
<path d="M6.73175 8.04028H3.93983C3.77789 8.04038 3.6226 8.10523 3.50808 8.22058C3.39357 8.33594 3.32919 8.49238 3.3291 8.65552V11.34C3.32919 11.5032 3.39357 11.6596 3.50808 11.775C3.6226 11.8903 3.77789 11.9552 3.93983 11.9553H6.73175C6.8937 11.9552 7.04899 11.8903 7.16351 11.775C7.27802 11.6596 7.34239 11.5032 7.34249 11.34V8.65552C7.34239 8.49238 7.27802 8.33594 7.16351 8.22058C7.04899 8.10523 6.8937 8.04038 6.73175 8.04028ZM6.12102 10.7248H4.55057V9.27075H6.12102V10.7248Z" fill="black"/>
<path d="M12.3177 8.04028H9.52577C9.36382 8.04038 9.20854 8.10523 9.09402 8.22058C8.97951 8.33594 8.91513 8.49238 8.91504 8.65552V11.34C8.91513 11.5032 8.97951 11.6596 9.09402 11.775C9.20854 11.8903 9.36382 11.9552 9.52577 11.9553H12.3177C12.4797 11.9553 12.635 11.8905 12.7495 11.7751C12.8641 11.6597 12.9284 11.5032 12.9284 11.34V8.65552C12.9284 8.49235 12.8641 8.33586 12.7495 8.22048C12.635 8.1051 12.4797 8.04028 12.3177 8.04028ZM11.707 10.7248H10.1365V9.27075H11.707V10.7248Z" fill="black"/>
<path d="M22.8723 36.6602C24.7424 36.6603 26.5705 36.1017 28.1254 35.0552C29.6804 34.0086 30.8923 32.5211 31.608 30.7806C32.3237 29.0402 32.511 27.125 32.1462 25.2774C31.7814 23.4297 30.8809 21.7325 29.5586 20.4004C28.2363 19.0683 26.5515 18.1611 24.7174 17.7935C22.8833 17.426 20.9821 17.6146 19.2544 18.3355C17.5267 19.0564 16.05 20.2772 15.011 21.8436C13.972 23.41 13.4175 25.2515 13.4175 27.1354C13.4203 29.6606 14.4173 32.0816 16.1898 33.8673C17.9623 35.6529 20.3656 36.6574 22.8723 36.6602ZM22.8723 18.8413C24.5008 18.8412 26.0928 19.3276 27.4469 20.239C28.8009 21.1504 29.8563 22.4458 30.4796 23.9614C31.1028 25.477 31.2659 27.1448 30.9482 28.7538C30.6305 30.3628 29.8463 31.8407 28.6948 33.0008C27.5433 34.1608 26.0761 34.9507 24.4789 35.2708C22.8817 35.5908 21.2261 35.4265 19.7216 34.7987C18.2171 34.1709 16.9311 33.1077 16.0264 31.7436C15.1217 30.3796 14.6389 28.7759 14.6389 27.1354C14.6414 24.9364 15.5097 22.8282 17.0532 21.2733C18.5967 19.7185 20.6895 18.8438 22.8723 18.8413Z" fill="black"/>
<path d="M18.6213 31.8864H27.1241C27.286 31.8863 27.4413 31.8215 27.5558 31.7061C27.6703 31.5908 27.7347 31.4343 27.7348 31.2712V25.2261C27.7347 25.0629 27.6703 24.9065 27.5558 24.7911C27.4413 24.6758 27.286 24.6109 27.1241 24.6108H25.9724L25.599 22.8699C25.5696 22.7323 25.4942 22.609 25.3855 22.5205C25.2768 22.4321 25.1412 22.3839 25.0015 22.384H20.7438C20.6043 22.3841 20.469 22.4322 20.3604 22.5205C20.2518 22.6088 20.1765 22.7318 20.147 22.8692L19.7736 24.6101H18.622C18.46 24.6102 18.3047 24.6751 18.1902 24.7904C18.0757 24.9058 18.0113 25.0622 18.0112 25.2254V31.2712C18.0113 31.4342 18.0756 31.5905 18.19 31.7059C18.3043 31.8212 18.4594 31.8861 18.6213 31.8864ZM19.232 30.656V28.4249H20.8374V28.4868C20.8374 28.65 20.9017 28.8065 21.0162 28.9218C21.1308 29.0372 21.2861 29.102 21.4481 29.102C21.6101 29.102 21.7654 29.0372 21.8799 28.9218C21.9945 28.8065 22.0588 28.65 22.0588 28.4868V28.4249H23.6851V28.4868C23.6851 28.65 23.7495 28.8065 23.864 28.9218C23.9785 29.0372 24.1339 29.102 24.2958 29.102C24.4578 29.102 24.6132 29.0372 24.7277 28.9218C24.8422 28.8065 24.9066 28.65 24.9066 28.4868V28.4249H26.5119V30.656H19.232ZM21.2369 23.6145H24.508L24.722 24.6101H21.023L21.2369 23.6145ZM25.4772 25.8406H26.5133V27.1938H19.232V25.8413L25.4772 25.8406Z" fill="black"/>
</g>
<rect x="1.03711" y="0.981689" width="43.6707" height="44" stroke="black"/>
<defs>
<clipPath id="clip0_56_261">
<rect x="0.537109" y="0.481689" width="44.6707" height="45" fill="white"/>
</clipPath>
</defs>
</svg>
