<svg width="55" height="56" viewBox="0 0 55 56" fill="none" xmlns="http://www.w3.org/2000/svg">
<g clip-path="url(#clip0_56_250)">
<path d="M53.7988 43.9985H49.2109V20.1339C49.2111 20.0054 49.1785 19.8791 49.1161 19.7671C49.0537 19.6552 48.9637 19.5614 48.8549 19.4949L27.9193 6.70498C27.804 6.63453 27.6719 6.59729 27.5371 6.59729C27.4024 6.59729 27.2702 6.63453 27.1549 6.70498L6.21934 19.4962C6.1105 19.5627 6.02052 19.6564 5.95814 19.7684C5.89576 19.8804 5.86308 20.0067 5.86328 20.1352V43.9998H1.27539C1.17837 43.9998 1.0823 44.0191 0.992668 44.0566C0.903041 44.0941 0.821616 44.1491 0.753049 44.2184C0.684482 44.2878 0.630118 44.3701 0.593066 44.4606C0.556013 44.5512 0.536999 44.6482 0.53711 44.7462V48.1544C0.53711 48.3522 0.614893 48.5418 0.753347 48.6816C0.891802 48.8214 1.07959 48.9 1.27539 48.9H53.7988C53.9946 48.9 54.1824 48.8214 54.3209 48.6816C54.4593 48.5418 54.5371 48.3522 54.5371 48.1544V44.7462C54.5374 44.6481 54.5185 44.5509 54.4815 44.4602C54.4445 44.3695 54.3902 44.2871 54.3216 44.2176C54.253 44.1482 54.1716 44.0931 54.0818 44.0555C53.9921 44.0179 53.896 43.9985 53.7988 43.9985ZM7.33984 36.4386H20.3652V39.8004H7.33984V36.4386ZM21.8418 28.6132C21.8428 27.6814 22.2098 26.788 22.8623 26.129C23.5148 25.4701 24.3995 25.0995 25.3223 25.0985H26.7988V32.7091C26.7978 34.7297 26.3526 36.7249 25.4954 38.5507C24.6382 40.3765 23.3903 41.9873 21.8418 43.267V28.6132ZM47.7344 39.8012H34.709V36.4386H47.7344V39.8012ZM33.2324 43.267C31.6838 41.9874 30.4359 40.3766 29.5787 38.5508C28.7214 36.7249 28.2763 34.7297 28.2754 32.7091V25.0985H29.752C30.6747 25.0995 31.5594 25.4701 32.2119 26.129C32.8644 26.788 33.2314 27.6814 33.2324 28.6132V43.267ZM23.4694 43.8119C25.3406 42.0639 26.7404 39.8637 27.5371 37.4184C28.3653 39.9498 29.8342 42.2186 31.798 44.0002H23.2762C23.3424 43.9367 23.4027 43.8732 23.4694 43.8119ZM34.709 41.2923H47.7344V43.9985H34.709V41.2923ZM27.5371 8.21399L47.7344 20.5544V34.9475H34.709V28.6132C34.7074 27.2861 34.1847 26.0137 33.2554 25.0753C32.3261 24.1368 31.0662 23.6089 29.752 23.6074H25.3223C24.008 23.6088 22.748 24.1367 21.8187 25.0752C20.8894 26.0136 20.3667 27.286 20.3652 28.6132V34.9475H7.33984V20.5544L27.5371 8.21399ZM7.33984 41.2923H20.3652V43.9985H7.33984V41.2923ZM53.0605 47.4067H2.01367V45.4896H53.0605V47.4067Z" fill="white"/>
<path d="M13.8525 32.3312C14.5527 32.3313 15.2371 32.1217 15.8193 31.7289C16.4015 31.3362 16.8553 30.7779 17.1233 30.1247C17.3913 29.4715 17.4615 28.7527 17.3249 28.0592C17.1884 27.3657 16.8513 26.7287 16.3562 26.2287C15.8612 25.7287 15.2304 25.3882 14.5437 25.2502C13.857 25.1123 13.1452 25.183 12.4984 25.4536C11.8515 25.7242 11.2986 26.1823 10.9096 26.7702C10.5206 27.3581 10.313 28.0493 10.313 28.7563C10.314 29.7041 10.6872 30.6127 11.3508 31.2829C12.0143 31.953 12.914 32.3301 13.8525 32.3312ZM13.8525 26.6726C14.2606 26.6725 14.6596 26.7947 14.999 27.0236C15.3384 27.2525 15.6029 27.5779 15.7591 27.9586C15.9154 28.3394 15.9563 28.7584 15.8767 29.1626C15.7972 29.5668 15.6007 29.9382 15.3121 30.2296C15.0236 30.5211 14.6559 30.7196 14.2556 30.8C13.8554 30.8804 13.4405 30.8392 13.0634 30.6815C12.6864 30.5238 12.3641 30.2567 12.1373 29.914C11.9106 29.5714 11.7896 29.1685 11.7896 28.7563C11.7906 28.2041 12.0082 27.6747 12.3949 27.2842C12.7815 26.8937 13.3057 26.6738 13.8525 26.6726Z" fill="white"/>
<path d="M27.537 21.2688C28.2372 21.2688 28.9217 21.0591 29.5038 20.6662C30.086 20.2734 30.5397 19.715 30.8076 19.0617C31.0755 18.4084 31.1456 17.6896 31.0089 16.9961C30.8722 16.3026 30.5349 15.6656 30.0397 15.1657C29.5445 14.6658 28.9136 14.3255 28.2269 14.1877C27.5401 14.0499 26.8283 14.1209 26.1815 14.3916C25.5346 14.6624 24.9819 15.1208 24.593 15.7088C24.2042 16.2969 23.9968 16.9882 23.9971 17.6952C23.9984 18.6428 24.3718 19.5512 25.0355 20.2211C25.6991 20.891 26.5987 21.2678 27.537 21.2688ZM27.537 15.6103C27.9451 15.6103 28.344 15.7324 28.6832 15.9613C29.0225 16.1902 29.287 16.5156 29.4432 16.8963C29.5994 17.2769 29.6404 17.6958 29.5609 18.1C29.4813 18.5042 29.285 18.8755 28.9965 19.1669C28.7081 19.4584 28.3405 19.657 27.9403 19.7375C27.5402 19.818 27.1253 19.777 26.7483 19.6194C26.3712 19.4619 26.0489 19.1951 25.822 18.8526C25.5951 18.5101 25.4739 18.1073 25.4736 17.6952C25.4743 17.1427 25.6919 16.613 26.0786 16.2221C26.4654 15.8313 26.9899 15.6113 27.537 15.6103Z" fill="white"/>
<path d="M41.2217 32.3312C41.9218 32.3313 42.6063 32.1217 43.1885 31.7289C43.7707 31.3362 44.2245 30.7779 44.4925 30.1247C44.7604 29.4715 44.8306 28.7527 44.6941 28.0592C44.5575 27.3657 44.2204 26.7287 43.7254 26.2287C43.2303 25.7287 42.5995 25.3882 41.9128 25.2502C41.2262 25.1123 40.5144 25.183 39.8675 25.4536C39.2206 25.7242 38.6677 26.1823 38.2787 26.7702C37.8898 27.3581 37.6821 28.0493 37.6821 28.7563C37.6831 29.7041 38.0564 30.6127 38.7199 31.2829C39.3835 31.953 40.2832 32.3301 41.2217 32.3312ZM41.2217 26.6726C41.6298 26.6725 42.0288 26.7947 42.3681 27.0236C42.7075 27.2525 42.972 27.5779 43.1283 27.9586C43.2845 28.3394 43.3254 28.7584 43.2459 29.1626C43.1663 29.5668 42.9698 29.9382 42.6813 30.2296C42.3927 30.5211 42.0251 30.7196 41.6248 30.8C41.2245 30.8804 40.8096 30.8392 40.4326 30.6815C40.0555 30.5238 39.7332 30.2567 39.5065 29.914C39.2797 29.5714 39.1587 29.1685 39.1587 28.7563C39.1597 28.2041 39.3774 27.6747 39.764 27.2842C40.1507 26.8937 40.6748 26.6738 41.2217 26.6726Z" fill="white"/>
</g>
<defs>
<clipPath id="clip0_56_250">
<rect width="54" height="54.532" fill="white" transform="translate(0.537109 0.481567)"/>
</clipPath>
</defs>
</svg>
