<svg width="54" height="54" viewBox="0 0 54 54" fill="none" xmlns="http://www.w3.org/2000/svg">
<path d="M48.9375 23.625H46.9641C46.4549 20.613 45.2692 17.7517 43.5017 15.2711L44.9017 13.8778C45.5555 13.2516 45.5573 12.1117 44.9016 11.4858C44.9017 11.4858 42.5146 9.09874 42.5146 9.09874C41.8777 8.4614 40.7628 8.45892 40.121 9.09957L38.7284 10.4979C36.2483 8.73084 33.3866 7.54514 30.375 7.03634V5.0625C30.375 4.13182 29.6178 3.375 28.6875 3.375H25.3125C24.3822 3.375 23.625 4.13182 23.625 5.0625V7.03634C20.6134 7.54514 17.7517 8.73084 15.2715 10.4979L13.8774 9.09792C13.2396 8.46058 12.1223 8.46181 11.4862 9.09833L9.09833 11.4854C8.77945 11.8039 8.60394 12.2286 8.60394 12.6818C8.53357 13.6949 9.85892 14.5386 10.4982 15.2712C8.73084 17.7517 7.54513 20.613 7.03592 23.625H5.0625C4.13223 23.625 3.375 24.3818 3.375 25.3125V28.6875C3.375 29.6182 4.13223 30.375 5.0625 30.375H7.03592C7.54514 33.387 8.73084 36.2483 10.4983 38.7289L9.09833 40.1222C8.44432 40.7482 8.44288 41.8885 9.09835 42.5142C9.09833 42.5142 11.4854 44.9013 11.4854 44.9013C12.1231 45.5382 13.238 45.5415 13.879 44.9004L15.2715 43.5022C17.7517 45.2692 20.6134 46.4549 23.625 46.9637V48.9375C23.625 49.8682 24.3822 50.625 25.3125 50.625H28.6875C29.6178 50.625 30.375 49.8682 30.375 48.9375C30.4318 48.2994 30.2703 47.6877 29.5312 47.655C29.0649 47.655 28.6875 48.0328 28.6875 48.4987V48.9375H25.3125V46.2373C25.3125 45.8138 24.9986 45.4558 24.5783 45.4006C21.3467 44.9762 18.2766 43.704 15.7025 41.7216C15.3663 41.4628 14.89 41.495 14.5893 41.7949L12.6793 43.7086L10.2906 41.317L12.2055 39.4103C12.5063 39.1108 12.5376 38.6341 12.278 38.2975C10.2964 35.7238 9.02417 32.6545 8.599 29.4213C8.5438 29.0014 8.18619 28.6875 7.76267 28.6875H5.0625V25.3125H7.76267C8.18619 25.3125 8.5438 24.9986 8.599 24.5788C9.02418 21.3455 10.2964 18.2762 12.278 15.7025C12.5376 15.3659 12.5063 14.8892 12.2055 14.5897L10.2914 12.6789L12.6826 10.2902L14.5893 12.2051C14.8892 12.5055 15.3663 12.5372 15.7025 12.2785C18.2766 10.296 21.3467 9.02375 24.5783 8.59941C24.9986 8.5442 25.3125 8.18618 25.3125 7.76266V5.06249H28.6875V7.76266C28.6875 8.18618 29.0014 8.5442 29.4217 8.59941C32.6533 9.02375 35.7234 10.296 38.2975 12.2785C38.6337 12.5376 39.1108 12.5063 39.4107 12.2051L41.3207 10.2914L43.7094 12.683L41.7945 14.5897C41.4937 14.8892 41.4624 15.3659 41.722 15.7025C43.7036 18.2762 44.9758 21.3455 45.401 24.5788C45.4562 24.9986 45.8138 25.3125 46.2373 25.3125H48.9375V28.6875H48.4992C47.3799 28.7082 47.3991 30.3588 48.4992 30.375C49.5829 30.5043 50.6184 29.8543 50.625 28.6875C50.625 28.6875 50.625 25.3125 50.625 25.3125C50.625 24.3818 49.8678 23.625 48.9375 23.625Z" fill="white"/>
<path d="M27 13.5C33.6215 13.5 39.3572 18.429 40.3402 24.9656C40.519 26.0604 42.1591 25.812 42.0095 24.7143C38.595 6.32695 12.4038 8.25736 11.8125 27.0001C11.8125 34.4549 17.3628 40.9112 24.7234 42.0178C25.1747 42.0879 25.6155 41.7723 25.6833 41.3091C25.7525 40.8481 25.4353 40.4184 24.9739 40.3492C8.62765 37.3174 10.3336 14.0263 27 13.5Z" fill="white"/>
<path d="M43.0903 46.6695L46.3055 49.8838C48.7171 52.1824 52.1845 48.7308 49.884 46.3057C49.884 46.3057 46.6697 43.0902 46.6697 43.0902C49.004 39.1445 48.3959 34.0767 45.1107 30.7919C41.1622 26.8443 34.7402 26.8443 30.7917 30.7919C22.5926 39.399 32.7594 52.4635 43.0903 46.6695ZM31.9848 31.985C35.2741 28.6957 40.6283 28.6957 43.9176 31.985C46.7941 34.8619 47.2069 39.3806 44.899 42.7288C44.6674 43.0638 44.7095 43.5162 44.997 43.8041L48.6909 47.4988C49.4579 48.2979 48.3021 49.4457 47.4986 48.6907C47.4986 48.6907 43.8039 44.9972 43.8039 44.9972C43.6408 44.8341 43.4249 44.7501 43.2074 44.7501C43.0409 44.7501 42.8736 44.7991 42.7286 44.8992C39.3792 47.2076 34.8621 46.7939 31.9848 43.9178C28.6947 40.6281 28.6947 35.2748 31.9848 31.985Z" fill="white"/>
<path d="M36.5112 40.2355C36.8408 40.5651 37.3748 40.5651 37.7043 40.2355L41.0793 36.8605C41.4089 36.5309 41.4089 35.997 41.0793 35.6674C40.7498 35.3378 40.2158 35.3378 39.8862 35.6674L37.1078 38.4458L36.0168 37.3549C35.2349 36.5782 34.0459 37.7645 34.8238 38.548C34.8237 38.548 36.5112 40.2355 36.5112 40.2355Z" fill="white"/>
</svg>
