<svg width="54" height="54" viewBox="0 0 54 54" fill="none" xmlns="http://www.w3.org/2000/svg">
<path d="M47.2091 38.4545H43.1182C43.0364 37.0636 42.5455 35.7545 41.6455 34.6909L48.4364 20.5363L48.9273 20.7818C49.0091 20.8636 49.1727 20.8636 49.2546 20.8636C49.3364 20.8636 49.4182 20.8636 49.5 20.7818C49.7455 20.7 49.9091 20.5363 49.9909 20.3727L51.3 17.6727L52.6909 14.7272C53.5909 12.7636 52.7727 10.4727 50.8909 9.5727L49.6636 8.99998C47.7 8.09998 45.4091 8.91816 44.5091 10.8L41.8091 16.4454C41.6455 16.8545 41.8091 17.3454 42.2182 17.5091L42.7091 17.7545L35.6727 32.3182C33.5455 32.6454 31.6636 33.9545 30.6818 36C30.2727 36.8182 30.1091 37.6363 30.0273 38.4545H27.1636C23.8909 38.4545 21.1909 41.1545 21.1909 44.4273V51.7091C21.1909 52.2 21.5182 52.5272 22.0091 52.5272H52.3636C52.8546 52.5272 53.1818 52.2 53.1818 51.7091V44.4273C53.1818 41.1545 50.4818 38.4545 47.2091 38.4545ZM28.8 50.8091V47.5363H45.5727V50.8091H28.8ZM46.3909 45.9H27.9818H26.9182C27.0818 45.4909 27.2455 45.0818 27.6546 44.7545C28.1455 44.2636 28.8818 43.9363 29.6182 43.9363H32.4818C33.7091 44.9182 35.1818 45.4091 36.6546 45.4091C38.1273 45.4091 39.6 44.9182 40.8273 43.9363H44.6727C45.9 43.9363 46.9636 44.7545 47.2909 45.9H46.3909ZM49.0091 18.9L48.5182 18.6545L44.1818 16.6091L43.6909 16.3636L44.2636 15.1363L49.5818 17.6727L49.0091 18.9ZM46.0636 11.4545C46.3091 10.8818 46.8 10.4727 47.3727 10.3091C47.9455 10.1454 48.5182 10.1454 49.0909 10.3909L50.3182 10.9636C51.4636 11.5363 51.8727 12.8454 51.3818 13.9909L50.3182 16.2L45 13.6636L46.0636 11.4545ZM47.0455 19.8L40.5 33.4636C40.1727 33.2182 39.8455 33.0545 39.5182 32.8091C38.8636 32.4818 38.2091 32.3182 37.5546 32.2363L44.2636 18.3272L47.0455 19.8ZM32.1546 36.7363C33.3 34.2818 36.2455 33.2182 38.7818 34.4454C41.2364 35.5909 42.3 38.6182 41.0727 41.0727C39.1909 45 33.3818 44.7545 31.9091 40.5818C31.5 39.2727 31.5818 37.8818 32.1546 36.7363ZM22.8273 44.4273C22.8273 42.0545 24.7909 40.0909 27.1636 40.0909H30.1091C30.2727 40.8273 30.5182 41.5636 31.0091 42.3H29.5364C28.3091 42.3 27.2455 42.7909 26.4273 43.6091C25.6091 44.4273 25.1182 45.5727 25.1182 46.7182C25.1182 47.2091 25.4455 47.5363 25.9364 47.5363H27.1636V50.8091H22.8273V44.4273ZM51.5455 50.8091H47.2091V47.5363H48.1909C48.6818 47.5363 49.0091 47.2091 49.0091 46.7182C49.0091 44.2636 47.0455 42.3 44.5909 42.3H42.2182C42.6273 41.6454 42.9546 40.9091 43.1182 40.0909H47.2909C49.6636 40.0909 51.6273 42.0545 51.6273 44.4273V50.8091H51.5455Z" fill="white"/>
<path d="M35.3453 41.4C35.7544 41.5636 36.1635 41.6455 36.5726 41.6455C37.6363 41.6455 38.6181 41.0727 39.109 40.0091C39.7635 38.6182 39.1908 36.9 37.7999 36.2455C36.409 35.5909 34.6908 36.1636 34.0363 37.5545C33.3817 39.0273 33.9544 40.7455 35.3453 41.4ZM35.509 38.3727C36.1635 36.9818 38.2908 37.9636 37.6363 39.4364C37.3908 40.0091 36.6544 40.2545 36.0817 40.0091C35.509 39.6 35.2635 38.9455 35.509 38.3727Z" fill="white"/>
<path d="M21.6 35.8364L22.2545 31.3364C22.9091 31.0909 23.5636 30.8454 24.2181 30.5182L27.9 33.2182C28.2272 33.4636 28.7181 33.4636 28.9636 33.1364L32.4818 29.6182C32.8091 29.2909 32.8091 28.8818 32.5636 28.5545L29.8636 24.8727C30.1909 24.2182 30.4363 23.5636 30.6818 22.9091L35.1818 22.2545C35.5909 22.1727 35.9181 21.8454 35.9181 21.4364V16.5273C35.9181 16.1182 35.5909 15.7909 35.1818 15.7091L30.6818 15.0545C30.4363 14.4 30.1909 13.7454 29.8636 13.0909L32.5636 9.40908C32.8091 9.08181 32.8091 8.5909 32.4818 8.34544L28.9636 4.90908C28.6363 4.58181 28.2272 4.58181 27.9 4.82726L24.2181 7.52726C23.5636 7.19999 22.9091 6.95453 22.2545 6.70908L21.6 2.20908C21.5181 1.79999 21.1909 1.47272 20.7818 1.47272H15.8727C15.4636 1.47272 15.1363 1.79999 15.0545 2.20908L14.4 6.70908C13.7454 6.95453 13.0909 7.19999 12.4363 7.52726L8.75451 4.82726C8.42724 4.58181 7.93633 4.58181 7.69087 4.90908L4.17269 8.42726C3.84542 8.75453 3.84542 9.16363 4.09087 9.4909L6.79087 13.0909C6.4636 13.7454 6.21815 14.4 5.97269 15.0545L1.47269 15.7091C1.0636 15.7909 0.736328 16.1182 0.736328 16.5273V21.4364C0.736328 21.8454 1.0636 22.1727 1.47269 22.2545L5.97269 22.9091C6.21815 23.5636 6.4636 24.2182 6.79087 24.8727L4.09087 28.5545C3.84542 28.8818 3.84542 29.3727 4.17269 29.6182L7.69087 33.1364C8.01815 33.3818 8.42724 33.4636 8.75451 33.2182L12.4363 30.5182C13.0909 30.8454 13.7454 31.0909 14.4 31.3364L15.0545 35.8364C15.1363 36.2454 15.4636 36.5727 15.8727 36.5727H20.7818C21.1909 36.4909 21.5181 36.2454 21.6 35.8364ZM20.7 30.5182L20.0454 34.8545H16.5272L15.8727 30.5182C15.7909 30.1909 15.6272 29.9454 15.3 29.8636C14.4 29.6182 13.5 29.2909 12.7636 28.8C12.5181 28.6364 12.1091 28.6364 11.8636 28.8818L8.34542 31.5L5.89087 29.0454L8.50905 25.5273C8.67269 25.2818 8.75451 24.9545 8.59087 24.6273C8.09996 23.8091 7.77269 22.9909 7.52724 22.0909C7.44542 21.7636 7.19996 21.5182 6.87269 21.5182L2.45451 20.7818V17.2636L6.79087 16.6091C7.11815 16.5273 7.3636 16.3636 7.44542 16.0364C7.69087 15.1364 8.01815 14.2364 8.50905 13.5C8.67269 13.2545 8.67269 12.8454 8.42724 12.6L5.80905 9.08181L8.2636 6.62726L11.7818 9.24544C12.0272 9.40908 12.3545 9.4909 12.6818 9.32726C13.5 8.83635 14.3181 8.50908 15.2181 8.26363C15.5454 8.18181 15.7909 7.93635 15.7909 7.60908L16.4454 3.27272H19.9636L20.6181 7.60908C20.7 7.93635 20.8636 8.18181 21.1909 8.26363C22.0909 8.50908 22.9909 8.83635 23.7272 9.32726C23.9727 9.4909 24.3818 9.4909 24.6272 9.24544L28.3091 6.54544L30.7636 8.99999L28.1454 12.5182C27.9818 12.7636 27.9 13.0909 28.0636 13.4182C28.5545 14.2364 28.8818 15.0545 29.1272 15.9545C29.2091 16.2818 29.4545 16.5273 29.7818 16.5273L34.1181 17.1818V20.7L29.7818 21.3545C29.4545 21.4364 29.2091 21.6 29.1272 21.9273C28.8818 22.8273 28.5545 23.7273 28.0636 24.4636C27.9 24.7091 27.9 25.1182 28.1454 25.3636L30.7636 28.8818L28.3091 31.3364L24.7909 28.7182C24.5454 28.5545 24.2181 28.4727 23.8909 28.6364C23.0727 29.1273 22.2545 29.4545 21.3545 29.7C21.0272 29.9454 20.7818 30.1909 20.7 30.5182Z" fill="white"/>
<path d="M18.3272 11.7818C14.3181 11.7818 11.0454 15.0545 11.0454 19.0636C11.0454 23.0727 14.3181 26.3454 18.3272 26.3454C22.3363 26.3454 25.609 23.0727 25.609 19.0636C25.609 15.0545 22.3363 11.7818 18.3272 11.7818ZM18.3272 24.6273C15.2181 24.6273 12.6818 22.0909 12.6818 18.9818C12.6818 15.8727 15.2181 13.3363 18.3272 13.3363C21.4363 13.3363 23.9727 15.8727 23.9727 18.9818C23.9727 22.0909 21.4363 24.6273 18.3272 24.6273Z" fill="white"/>
</svg>
