<svg width="54" height="54" viewBox="0 0 54 54" fill="none" xmlns="http://www.w3.org/2000/svg">
<path d="M16.5165 13.3337C16.5125 13.4597 16.5104 14.0323 16.5102 14.1047C16.4891 15.9774 16.6178 16.181 18.2371 16.8265L18.4747 16.9217C19.2749 17.2439 19.4844 17.7323 19.1561 18.5234C19.0009 18.9035 18.8927 19.1729 18.7778 19.4319C18.4698 20.1262 18.6069 20.7998 19.1645 21.3296C19.2659 21.4257 19.3559 21.5172 19.6546 21.8222C20.9174 23.1092 21.1487 23.1581 22.754 22.4729L22.9466 22.3906C24.636 21.6726 24.5275 23.4235 25.1249 24.1727C25.3724 24.4831 25.7465 24.7552 26.1796 24.9398C26.5428 25.095 26.9223 25.0143 27.1717 25.0143C29.0905 24.9869 29.2775 24.8931 30.0074 23.124C30.7354 21.3623 31.8657 22.7158 33.1961 22.8923C33.3388 22.9092 33.7663 22.9682 34.6051 22.231C35.1388 21.7617 36.0416 20.758 36.0395 19.9733V19.8678C35.5714 18.7621 35.3318 18.4478 35.4699 17.595C35.5347 17.1977 35.8018 17.0553 36.4417 16.8029L36.5999 16.7403C37.9583 16.1929 38.1306 15.9381 38.139 14.4678L38.1404 14.227C38.1538 12.4411 38.0202 12.2428 36.3552 11.5783C36.2565 11.524 35.6657 11.3916 35.4461 10.8703C35.1864 10.253 35.6425 9.64168 35.7983 9.17012C36.2033 8.19524 36.1133 7.72661 35.3786 6.99008L35.0059 6.61848C33.7262 5.33774 33.4857 5.29204 31.7954 6.00008C30.3626 6.60177 30.1848 5.69647 29.6214 4.38606C29.364 3.78665 28.8592 3.44528 28.1982 3.42454C27.9681 3.41764 27.7058 3.41986 27.4445 3.42067C25.5777 3.42067 25.3689 3.55989 24.6517 5.2843C23.6456 7.69804 21.978 4.4072 20.3218 5.94629C20.2376 6.02393 19.812 6.44719 19.7397 6.51934C18.4171 7.81063 18.365 8.04372 19.0436 9.63419C19.0815 9.75587 19.4433 10.3795 19.2411 10.8689C19.0404 11.3567 16.5755 11.5044 16.5165 13.3337ZM20.0371 9.2102C19.5652 8.10539 19.569 8.19526 20.7901 6.99922C21.3222 6.46067 21.2883 6.50586 22.1155 6.86176C22.2687 6.87766 24.5607 8.32197 25.6487 5.69879C26.1689 4.4487 26.1448 4.50067 27.6393 4.49997C27.8136 4.49926 27.9887 4.49786 28.1645 4.50383C28.4071 4.51157 28.5372 4.5977 28.6286 4.81215C29.0235 5.72773 29.3021 6.72445 30.2711 7.12403C30.8195 7.35043 31.472 7.30719 32.2131 6.99641C33.4673 6.47002 33.3403 6.48259 34.6136 7.75297C35.1282 8.2689 35.0478 8.13359 34.4968 9.48196C33.9593 10.7755 34.492 11.9955 35.7414 12.4963C37.1309 13.0509 37.0775 12.9498 37.059 14.4618C37.0539 15.4373 37.0584 15.391 36.0458 15.7981C35.4243 16.0432 34.5735 16.3786 34.404 17.422C34.2234 18.5308 34.5131 19.0466 34.9475 20.0563C34.821 20.5449 33.7164 21.7455 33.3381 21.8215C33.0693 21.7861 32.8501 21.6987 32.1386 21.3964C30.7084 20.816 29.5975 21.2836 29.009 22.7127C28.5203 23.896 28.5048 23.9343 27.2982 23.9343C27.1759 23.9336 27.0395 23.9368 26.9052 23.9463C26.8032 23.953 26.6499 23.9642 26.6029 23.9463C26.3364 23.8324 26.105 23.67 25.9693 23.4995C25.6915 23.1483 25.4355 21.1401 23.6532 21.1401C22.9995 21.1401 22.4434 21.44 22.3293 21.4797C21.0266 22.0377 21.2883 21.8601 19.9077 20.546C19.6806 20.3305 19.6419 20.147 19.765 19.8703C19.862 19.6513 19.9527 19.4291 20.0434 19.2069C20.086 19.0483 20.6438 18.0982 20.2361 17.1309C20.0132 16.6 19.5561 16.1926 18.8776 15.9198C17.4909 15.3665 17.5673 15.5031 17.5923 13.7338C17.5923 12.931 17.525 13.0573 18.8713 12.5093C21.3312 11.5072 20.0425 9.28221 20.0371 9.2102Z" fill="white"/>
<path d="M24.0758 16.7259C24.3088 16.909 24.6502 16.8689 24.8338 16.6331C25.0173 16.3983 24.9758 16.059 24.7409 15.8751L22.46 14.0913L24.6214 12.1391C24.8429 11.939 24.8598 11.5977 24.6601 11.3762C24.4597 11.155 24.118 11.1389 23.8972 11.3375L21.2591 13.7204C21.0069 13.9485 21.0279 14.3434 21.2886 14.5466L24.0758 16.7259Z" fill="white"/>
<path d="M30.2407 16.8405C30.5746 16.8405 30.4758 16.7496 33.3598 14.5466C33.6206 14.3433 33.6413 13.9483 33.3893 13.7204L30.7512 11.3375C30.5304 11.1378 30.1894 11.1547 29.9883 11.3762C29.7886 11.5977 29.8055 11.939 30.027 12.1391L32.1884 14.0913L29.9074 15.8751C29.503 16.1918 29.7293 16.8405 30.2407 16.8405Z" fill="white"/>
<path d="M25.9132 18.8462C26.1396 18.8462 26.3498 18.7031 26.4257 18.477L29.1447 10.3197C29.2389 10.0367 29.0857 9.73086 28.803 9.63664C28.5154 9.54137 28.2145 9.69571 28.1196 9.97801L25.4006 18.1353C25.2841 18.4853 25.5456 18.8462 25.9132 18.8462Z" fill="white"/>
<path d="M15.887 22.9609L12.1534 24.0655C11.5445 24.1648 11.541 25.0155 12.145 25.1286L27.3691 29.3473C27.4698 29.3752 27.5731 29.3728 27.6679 29.3445L42.3597 24.9528C42.8349 24.8103 42.9105 23.9772 42.3288 23.8391L36.7298 22.5088C36.4387 22.4391 36.1483 22.6188 36.0794 22.9092C36.0105 23.1992 36.1898 23.4903 36.4795 23.5592L40.2517 24.4557L27.5076 28.2652L14.2122 24.5826L16.1936 23.9966C16.4798 23.9118 16.6429 23.6116 16.5578 23.3254C16.4741 23.04 16.1767 22.8772 15.887 22.9609Z" fill="white"/>
<path d="M9.09713 34.2541L21.5931 38.6979C22.3357 38.9618 23.1492 38.6229 23.4894 37.9156L26.7385 31.1301C26.8672 30.8612 26.7533 30.5388 26.4847 30.4101C26.214 30.2804 25.8927 30.3953 25.764 30.6639L22.5156 37.4487C22.4143 37.6576 22.1774 37.7574 21.9545 37.6804L9.45924 33.2367C9.20462 33.1465 9.08633 32.8569 9.2012 32.6148L11.9455 26.8611C12.0742 26.5921 11.9596 26.2698 11.691 26.1414C11.4196 26.0114 11.0996 26.1274 10.971 26.3963L8.22667 32.1503C7.83578 32.9705 8.24095 33.9491 9.09713 34.2541Z" fill="white"/>
<path d="M44.5235 33.8537L32.1766 37.6839C31.9467 37.7528 31.709 37.6361 31.6218 37.4192L29.0069 30.8686C28.8965 30.5912 28.5836 30.4579 28.3052 30.5669C28.0281 30.6777 27.8931 30.992 28.0042 31.2686L30.6192 37.8193C30.9139 38.5596 31.7413 38.9499 32.4965 38.7154L44.8434 34.8852C45.6499 34.6352 46.1034 33.7756 45.8545 32.9688L43.8478 26.4719C43.7599 26.1868 43.4589 26.0289 43.172 26.1151C42.8873 26.2033 42.7277 26.5057 42.8156 26.7904L44.8223 33.2873C44.8961 33.5257 44.7625 33.7798 44.5235 33.8537Z" fill="white"/>
<path d="M41.8909 46.8239L41.6596 39.2779C41.6504 38.9854 41.4107 38.7544 41.1196 38.7544C41.1146 38.7544 41.1083 38.7544 41.1027 38.7548C40.8053 38.7639 40.5704 39.0128 40.5796 39.311L40.8109 46.8404C40.8109 46.9406 40.7659 47.0334 40.6907 47.0956L28.0534 49.2868V35.3091C28.0534 35.011 27.8115 34.7691 27.5134 34.7691C27.2153 34.7691 26.9734 35.011 26.9734 35.3091V49.3674C26.9734 49.5989 26.6905 49.4384 26.6176 49.4247L14.2869 47.1012C14.2138 47.0387 14.1702 46.9444 14.1702 46.8348L13.9396 38.2904C13.9311 37.9923 13.6745 37.7514 13.3848 37.7652C13.0867 37.7729 12.8518 38.0211 12.8596 38.3192L13.0902 46.8492C13.0902 47.5219 13.6056 48.0722 13.981 48.1426L26.3448 50.472C26.5044 50.5444 26.6732 50.5803 26.8419 50.5803C26.9171 50.5803 26.9913 50.5644 27.0655 50.5502C27.1662 50.5408 26.3038 50.6833 40.981 48.1412C41.3348 48.0815 41.8909 47.5662 41.8909 46.8239Z" fill="white"/>
<path d="M41.891 11.3924V7.69216C41.891 7.39404 41.6492 7.15216 41.351 7.15216C41.0529 7.15216 40.811 7.39404 40.811 7.69216V11.3924C40.811 11.6905 41.0529 11.9324 41.351 11.9324C41.6492 11.9324 41.891 11.6905 41.891 11.3924Z" fill="white"/>
<path d="M11.018 18.5962V14.6267C11.018 14.3286 10.7761 14.0867 10.478 14.0867C10.1798 14.0867 9.93799 14.3286 9.93799 14.6267V18.5962C9.93799 18.8943 10.1798 19.1362 10.478 19.1362C10.7761 19.1362 11.018 18.8943 11.018 18.5962Z" fill="white"/>
</svg>
