<svg width="54" height="54" viewBox="0 0 54 54" fill="none" xmlns="http://www.w3.org/2000/svg">
<path d="M32.4574 27.7274H13.4807C13.2516 27.7274 13.0318 27.6364 12.8698 27.4743C12.7077 27.3123 12.6167 27.0925 12.6167 26.8634V10.3804C12.6167 10.1513 12.7077 9.93151 12.8698 9.76948C13.0318 9.60745 13.2516 9.51642 13.4807 9.51642H32.4574C32.6865 9.51642 32.9063 9.60745 33.0683 9.76948C33.2304 9.93151 33.3214 10.1513 33.3214 10.3804V26.8634C33.3214 27.0925 33.2304 27.3123 33.0683 27.4743C32.9063 27.6364 32.6865 27.7274 32.4574 27.7274ZM14.3447 25.9994H31.5934V11.2444H14.3447V25.9994Z" fill="white"/>
<path d="M19.2927 17.0905C19.0636 17.0905 18.8438 16.9994 18.6818 16.8374C18.5197 16.6754 18.4287 16.4556 18.4287 16.2265V10.3804C18.4287 10.1513 18.5197 9.93151 18.6818 9.76948C18.8438 9.60745 19.0636 9.51642 19.2927 9.51642C19.5219 9.51642 19.7416 9.60745 19.9037 9.76948C20.0657 9.93151 20.1567 10.1513 20.1567 10.3804V14.8084L22.5738 13.5664C22.6959 13.5036 22.8314 13.4708 22.9688 13.4708C23.1062 13.4708 23.2416 13.5036 23.3638 13.5664L25.7808 14.8084V10.3804C25.7808 10.1513 25.8718 9.93151 26.0339 9.76948C26.1959 9.60745 26.4157 9.51642 26.6448 9.51642C26.874 9.51642 27.0937 9.60745 27.2558 9.76948C27.4178 9.93151 27.5088 10.1513 27.5088 10.3804V16.2265C27.5088 16.3746 27.4708 16.5202 27.3983 16.6494C27.3258 16.7786 27.2213 16.887 27.0949 16.9641C26.9684 17.0413 26.8242 17.0846 26.6762 17.09C26.5282 17.0954 26.3813 17.0626 26.2495 16.9949L22.969 15.3079L19.688 16.9949C19.5657 17.0577 19.4302 17.0905 19.2927 17.0905Z" fill="white"/>
<path d="M40.222 44.4836H13.7782C8.68225 44.4836 4.53613 40.338 4.53613 35.2415C4.53613 30.145 8.68225 25.9994 13.7782 25.9994H40.222C45.318 25.9994 49.4641 30.1455 49.4641 35.2415C49.4641 40.3375 45.318 44.4836 40.222 44.4836ZM13.7782 27.7274C9.63481 27.7274 6.26413 31.0981 6.26413 35.2415C6.26413 39.3849 9.63481 42.7556 13.7782 42.7556H40.222C44.3654 42.7556 47.7361 39.3849 47.7361 35.2415C47.7361 31.0981 44.3654 27.7274 40.222 27.7274H13.7782Z" fill="white"/>
<path d="M40.1963 40.7311H13.8033C12.3532 40.7293 10.9629 40.1526 9.93735 39.1274C8.91175 38.1022 8.33446 36.7122 8.33203 35.262V35.2253C8.33389 33.7748 8.91092 32.3842 9.93658 31.3586C10.9622 30.3329 12.3528 29.7559 13.8033 29.754H40.1963C41.6465 29.7559 43.0367 30.3326 44.0623 31.3578C45.0879 32.383 45.6652 33.773 45.6676 35.2231V35.262C45.6652 36.7122 45.0879 38.1022 44.0623 39.1274C43.0367 40.1526 41.6465 40.7293 40.1963 40.7311ZM13.8033 31.482C12.8109 31.4832 11.8594 31.8779 11.1577 32.5797C10.4559 33.2814 10.0612 34.2329 10.06 35.2253V35.262C10.0612 36.2545 10.4559 37.2059 11.1577 37.9077C11.8594 38.6094 12.8109 39.0042 13.8033 39.0053H40.1963C41.1888 39.0042 42.1402 38.6094 42.842 37.9077C43.5437 37.2059 43.9385 36.2545 43.9396 35.262V35.2253C43.9385 34.2329 43.5437 33.2814 42.842 32.5797C42.1402 31.8779 41.1888 31.4832 40.1963 31.482H13.8033Z" fill="white"/>
<path d="M22.9688 38.5355C22.3173 38.5355 21.6805 38.3423 21.1388 37.9804C20.5971 37.6184 20.1749 37.104 19.9255 36.5021C19.6762 35.9002 19.611 35.2379 19.7381 34.5989C19.8652 33.9599 20.1789 33.373 20.6396 32.9123C21.1003 32.4516 21.6872 32.1379 22.3262 32.0108C22.9652 31.8837 23.6275 31.9489 24.2294 32.1983C24.8313 32.4476 25.3457 32.8698 25.7077 33.4115C26.0696 33.9532 26.2628 34.59 26.2628 35.2415C26.2618 36.1148 25.9144 36.9521 25.2969 37.5696C24.6794 38.1871 23.8421 38.5345 22.9688 38.5355ZM22.9688 33.6755C22.6591 33.6755 22.3563 33.7674 22.0988 33.9394C21.8413 34.1115 21.6405 34.3561 21.522 34.6422C21.4035 34.9284 21.3725 35.2432 21.4329 35.547C21.4933 35.8508 21.6425 36.1298 21.8615 36.3488C22.0805 36.5678 22.3595 36.717 22.6633 36.7774C22.9671 36.8378 23.2819 36.8068 23.5681 36.6883C23.8542 36.5698 24.0988 36.3691 24.2709 36.1115C24.443 35.854 24.5348 35.5512 24.5348 35.2415C24.5348 34.8262 24.3698 34.4279 24.0761 34.1342C23.7825 33.8405 23.3841 33.6755 22.9688 33.6755Z" fill="white"/>
<path d="M14.8502 38.5355C14.1987 38.5355 13.5618 38.3423 13.0201 37.9804C12.4784 37.6184 12.0562 37.104 11.8069 36.5021C11.5576 35.9002 11.4923 35.2379 11.6194 34.5989C11.7465 33.9599 12.0603 33.373 12.5209 32.9123C12.9816 32.4516 13.5686 32.1379 14.2075 32.0108C14.8465 31.8837 15.5088 31.9489 16.1107 32.1983C16.7126 32.4476 17.2271 32.8698 17.589 33.4115C17.951 33.9532 18.1442 34.59 18.1442 35.2415C18.1432 36.1148 17.7958 36.9521 17.1783 37.5696C16.5607 38.1871 15.7235 38.5345 14.8502 38.5355ZM14.8502 33.6755C14.5404 33.6755 14.2377 33.7674 13.9801 33.9394C13.7226 34.1115 13.5219 34.3561 13.4034 34.6422C13.2848 34.9284 13.2538 35.2432 13.3142 35.547C13.3747 35.8508 13.5238 36.1298 13.7428 36.3488C13.9618 36.5678 14.2409 36.717 14.5446 36.7774C14.8484 36.8378 15.1633 36.8068 15.4494 36.6883C15.7356 36.5698 15.9802 36.3691 16.1522 36.1115C16.3243 35.854 16.4162 35.5512 16.4162 35.2415C16.4162 34.8262 16.2512 34.4279 15.9575 34.1342C15.6638 33.8405 15.2655 33.6755 14.8502 33.6755Z" fill="white"/>
<path d="M31.085 38.5355C30.4335 38.5355 29.7967 38.3423 29.255 37.9804C28.7133 37.6184 28.2911 37.104 28.0418 36.5021C27.7924 35.9002 27.7272 35.2379 27.8543 34.5989C27.9814 33.9599 28.2951 33.373 28.7558 32.9123C29.2165 32.4516 29.8034 32.1379 30.4424 32.0108C31.0814 31.8837 31.7437 31.9489 32.3456 32.1983C32.9475 32.4476 33.4619 32.8698 33.8239 33.4115C34.1858 33.9532 34.379 34.59 34.379 35.2415C34.3779 36.1148 34.0305 36.952 33.413 37.5695C32.7955 38.187 31.9583 38.5344 31.085 38.5355ZM31.085 33.6755C30.7753 33.6755 30.4725 33.7674 30.215 33.9394C29.9575 34.1115 29.7567 34.3561 29.6382 34.6422C29.5197 34.9284 29.4887 35.2432 29.5491 35.547C29.6095 35.8508 29.7587 36.1298 29.9777 36.3488C30.1967 36.5678 30.4757 36.717 30.7795 36.7774C31.0833 36.8378 31.3982 36.8068 31.6843 36.6883C31.9704 36.5698 32.215 36.3691 32.3871 36.1115C32.5592 35.854 32.651 35.5512 32.651 35.2415C32.651 34.8262 32.486 34.4279 32.1923 34.1342C31.8987 33.8405 31.5003 33.6755 31.085 33.6755Z" fill="white"/>
<path d="M39.2042 38.5355C38.5527 38.5355 37.9158 38.3423 37.3741 37.9804C36.8324 37.6184 36.4102 37.104 36.1609 36.5021C35.9116 35.9002 35.8464 35.2379 35.9735 34.5989C36.1006 33.9599 36.4143 33.373 36.8749 32.9123C37.3356 32.4516 37.9226 32.1379 38.5615 32.0108C39.2005 31.8837 39.8628 31.9489 40.4647 32.1983C41.0666 32.4476 41.5811 32.8698 41.943 33.4115C42.305 33.9532 42.4982 34.59 42.4982 35.2415C42.4972 36.1148 42.1498 36.9521 41.5323 37.5696C40.9147 38.1871 40.0775 38.5345 39.2042 38.5355ZM39.2042 33.6755C38.8944 33.6755 38.5917 33.7674 38.3341 33.9394C38.0766 34.1115 37.8759 34.3561 37.7574 34.6422C37.6388 34.9284 37.6078 35.2432 37.6682 35.547C37.7287 35.8508 37.8778 36.1298 38.0968 36.3488C38.3158 36.5678 38.5949 36.717 38.8986 36.7774C39.2024 36.8378 39.5173 36.8068 39.8034 36.6883C40.0896 36.5698 40.3342 36.3691 40.5062 36.1115C40.6783 35.854 40.7702 35.5512 40.7702 35.2415C40.7702 34.8262 40.6052 34.4279 40.3115 34.1342C40.0178 33.8405 39.6195 33.6755 39.2042 33.6755Z" fill="white"/>
<path d="M41.9365 23.8572C41.7073 23.8572 41.4875 23.7662 41.3255 23.6041C41.1635 23.4421 41.0725 23.2223 41.0725 22.9932V21.5492H36.4285C36.1993 21.5492 35.9795 21.4582 35.8175 21.2962C35.6555 21.1341 35.5645 20.9144 35.5645 20.6852V16.5586C35.5645 16.3294 35.6555 16.1096 35.8175 15.9476C35.9795 15.7856 36.1993 15.6946 36.4285 15.6946H41.0725V14.2506C41.0725 14.0948 41.1146 13.9419 41.1944 13.8081C41.2742 13.6743 41.3888 13.5646 41.5258 13.4905C41.6629 13.4165 41.8174 13.3809 41.9731 13.3875C42.1288 13.3941 42.2797 13.4427 42.41 13.5281L49.0736 17.9021C49.1935 17.9807 49.2919 18.0879 49.3601 18.214C49.4282 18.3401 49.4639 18.4812 49.4639 18.6246C49.4639 18.7679 49.4282 18.909 49.3601 19.0352C49.2919 19.1613 49.1935 19.2685 49.0736 19.3471L42.41 23.7179C42.2692 23.8096 42.1045 23.858 41.9365 23.8572ZM37.2925 19.8212H41.9365C42.1656 19.8212 42.3854 19.9123 42.5474 20.0743C42.7094 20.2363 42.8005 20.4561 42.8005 20.6852V21.3926L47.0243 18.6219L42.8005 15.8506V16.5586C42.8005 16.7877 42.7094 17.0075 42.5474 17.1695C42.3854 17.3315 42.1656 17.4226 41.9365 17.4226H37.2925V19.8212Z" fill="white"/>
</svg>
