<?xml version="1.0"?>
<svg xmlns="http://www.w3.org/2000/svg" id="Layer_1" data-name="Layer 1" viewBox="0 0 512 512"><g id="_201607784" data-name=" 201607784"><path d="M328.17,389.53A52.33,52.33,0,0,1,291,374.18l-85-85a7.5,7.5,0,1,1,10.61-10.61l85,85a37.54,37.54,0,0,0,53,0L430.28,288a37.57,37.57,0,0,0,0-53.05l-103-103a7.5,7.5,0,0,1,10.61-10.61l103,103a52.56,52.56,0,0,1,0,74.26L365.3,374.18A52.34,52.34,0,0,1,328.17,389.53ZM150.74,230.77a7.5,7.5,0,0,1-5.3-12.8L261.58,101.83a7.5,7.5,0,1,1,10.61,10.61L156,228.58A7.47,7.47,0,0,1,150.74,230.77Z"/></g><g id="_201607472" data-name=" 201607472"><path d="M372.22,401.47a15.77,15.77,0,0,1-11.62-4.56l-15.46-15.46a7.5,7.5,0,0,1,10.61-10.61l15.46,15.46c2.92,1.81,21.88-5.2,49.23-32.55s34.38-46.32,32.56-49.26L437.55,289a7.5,7.5,0,0,1,10.61-10.6l15.46,15.46c17.58,17.58-20.48,58.37-32.56,70.45C421.18,374.23,392.11,401.47,372.22,401.47Z"/></g><g id="_201607352" data-name=" 201607352"><path d="M296.34,376.37a7.5,7.5,0,0,1-5.3-12.8L430.28,224.33a7.5,7.5,0,1,1,10.6,10.61L301.65,374.18A7.51,7.51,0,0,1,296.34,376.37Z"/></g><g id="_201607280" data-name=" 201607280"><path d="M272.87,352.9a7.5,7.5,0,0,1-5.31-12.8L406.8,200.86a7.5,7.5,0,0,1,10.61,10.61L278.17,350.7A7.44,7.44,0,0,1,272.87,352.9Z"/></g><g id="_201607640" data-name=" 201607640"><path d="M411.84,260.88a7.61,7.61,0,0,1-1.63-.18l-38.4-8.55a7.5,7.5,0,1,1,3.26-14.64l38.4,8.55a7.5,7.5,0,0,1-1.63,14.82Z"/></g><g id="_201606704" data-name=" 201606704"><path d="M373.43,299.29a7.1,7.1,0,0,1-1.64-.18l-38.4-8.55a7.5,7.5,0,0,1,3.26-14.64l38.4,8.55a7.5,7.5,0,0,1-1.62,14.82Z"/></g><g id="_201606872" data-name=" 201606872"><path d="M335,337.71a7.7,7.7,0,0,1-1.64-.18L295,329a7.5,7.5,0,0,1,3.26-14.64l38.4,8.55A7.5,7.5,0,0,1,335,337.71Z"/></g><g id="_201606776" data-name=" 201606776"><path d="M160.65,368.44A17.43,17.43,0,0,1,143.24,351V223.27a7.5,7.5,0,1,1,15,0V351a2.52,2.52,0,0,0,5,0V304.94a17.43,17.43,0,0,1,17.42-17.41c10.25,0,18,7.48,18,17.41v26a2.44,2.44,0,0,0,2.41,2.41c1.3,0,2.8-.63,2.8-2.41V162.63a7.5,7.5,0,0,1,15,0V331a17.61,17.61,0,0,1-35.21,0v-26c0-2.24-2.28-2.41-3-2.41a2.45,2.45,0,0,0-2.42,2.41V351A17.33,17.33,0,0,1,160.65,368.44Z"/></g><g id="_201607016" data-name=" 201607016"><path d="M332.57,171a7.5,7.5,0,0,1-7.5-7.5V35.5H274.38v128a7.5,7.5,0,0,1-15,0V28a7.5,7.5,0,0,1,7.5-7.5h65.69a7.5,7.5,0,0,1,7.5,7.5V163.45A7.5,7.5,0,0,1,332.57,171Z"/></g><g id="_201606368" data-name=" 201606368"><path d="M299.72,256.7a56.66,56.66,0,0,1-37.85-98.83,7.5,7.5,0,1,1,10,11.16,41.67,41.67,0,1,0,55.67,0,7.5,7.5,0,0,1,10-11.16,56.66,56.66,0,0,1-37.86,98.83Z"/></g><g id="_201606632" data-name=" 201606632"><path d="M299.72,228.7A28.67,28.67,0,1,1,328.39,200,28.7,28.7,0,0,1,299.72,228.7Zm0-42.33A13.67,13.67,0,1,0,313.39,200,13.68,13.68,0,0,0,299.72,186.37Z"/></g><g id="_201607112" data-name=" 201607112"><path d="M477.23,491.5H34.77a7.5,7.5,0,0,1-7.5-7.5V444.2a7.5,7.5,0,0,1,7.5-7.5H477.23a7.5,7.5,0,0,1,7.5,7.5V484A7.5,7.5,0,0,1,477.23,491.5Zm-435-15H469.73V451.7H42.27Z"/></g><g id="_201606296" data-name=" 201606296"><path d="M248.39,451.7a7.5,7.5,0,0,1-7.5-7.5V401.37H126V444.2a7.5,7.5,0,0,1-15,0V393.87a7.5,7.5,0,0,1,7.5-7.5H248.39a7.5,7.5,0,0,1,7.5,7.5V444.2A7.5,7.5,0,0,1,248.39,451.7Z"/></g></svg>
