<svg id="Layer_1" viewBox="0 0 1000 1000" xmlns="http://www.w3.org/2000/svg" data-name="Layer 1"><path d="m601.06 513.47h-351.42a16 16 0 0 1 -16-16v-305.24a16 16 0 0 1 16-16h351.42a16 16 0 0 1 16 16v305.24a16 16 0 0 1 -16 16zm-335.42-32h319.42v-273.24h-319.42z"/><path d="m357.27 316.49a16 16 0 0 1 -16-16v-108.26a16 16 0 0 1 32 0v82l44.76-23a16 16 0 0 1 14.63 0l44.76 23v-82a16 16 0 1 1 32 0v108.26a16 16 0 0 1 -23.32 14.23l-60.75-31.24-60.76 31.24a16 16 0 0 1 -7.32 1.77z"/><path d="m744.85 823.77h-489.7c-94.37 0-171.15-76.77-171.15-171.15s76.78-171.15 171.15-171.15h489.7c94.37 0 171.15 76.78 171.15 171.15s-76.78 171.15-171.15 171.15zm-489.7-310.3c-76.73 0-139.15 62.42-139.15 139.15s62.42 139.15 139.15 139.15h489.7c76.73 0 139.15-62.42 139.15-139.15s-62.42-139.15-139.15-139.15z"/><path d="m744.38 754.28h-488.76a101.45 101.45 0 0 1 -101.32-101.28v-.68a101.45 101.45 0 0 1 101.32-101.32h488.76a101.45 101.45 0 0 1 101.32 101.28v.72a101.45 101.45 0 0 1 -101.32 101.28zm-488.76-171.28a69.4 69.4 0 0 0 -69.32 69.32v.68a69.4 69.4 0 0 0 69.32 69.32h488.76a69.4 69.4 0 0 0 69.32-69.32v-.68a69.4 69.4 0 0 0 -69.32-69.32z"/><path d="m425.35 713.62a61 61 0 1 1 61-61 61.07 61.07 0 0 1 -61 61zm0-90a29 29 0 1 0 29 29 29 29 0 0 0 -29-29z"/><path d="m275 713.62a61 61 0 1 1 61-61 61.07 61.07 0 0 1 -61 61zm0-90a29 29 0 1 0 29 29 29 29 0 0 0 -29-29z"/><path d="m575.65 713.62a61 61 0 1 1 61-61 61.08 61.08 0 0 1 -61 61zm0-90a29 29 0 1 0 29 29 29 29 0 0 0 -29-29z"/><path d="m726 713.62a61 61 0 1 1 61-61 61.07 61.07 0 0 1 -61 61zm0-90a29 29 0 1 0 29 29 29 29 0 0 0 -29-29z"/><path d="m776.6 441.8a16 16 0 0 1 -16-16v-26.74h-86a16 16 0 0 1 -16-16v-76.42a16 16 0 0 1 16-16h86v-26.74a16 16 0 0 1 24.77-13.38l123.4 81a16 16 0 0 1 0 26.76l-123.4 80.94a15.92 15.92 0 0 1 -8.77 2.58zm-86-74.74h86a16 16 0 0 1 16 16v13.1l78.22-51.31-78.22-51.32v13.11a16 16 0 0 1 -16 16h-86z"/></svg>